<svg xmlns="http://www.w3.org/2000/svg" xmlns:xlink="http://www.w3.org/1999/xlink"><defs><clipPath id="big-arrow-a"><path fill="#fff" transform="rotate(90 25.5 25.5)" d="M0 0h82v51H0z"/></clipPath><clipPath id="button-form-a"><path fill="#fff" d="M0 0h35v54H0z"/></clipPath><clipPath id="link-a"><path d="M0 0h8v8H0z"/></clipPath></defs><symbol id="icon-accordion-arrow" viewBox="0 0 32 32"><path fill-rule="evenodd" clip-rule="evenodd" d="m2.793 10.707 1.414-1.414L16 21.086 27.793 9.293l1.414 1.414L16 23.914 2.793 10.707Z" fill="#3B4858"/></symbol><symbol id="icon-arrow-link" viewBox="0 0 24 24"><path d="M7.5 4.5V6h9.442L4.5 18.442 5.558 19.5 18 7.058V16.5h1.5v-12h-12Z" fill="currentColor"/></symbol><symbol id="icon-arrow" viewBox="0 0 24 24"><path d="m13.5 4.5-1.072 1.045 5.684 5.705H3v1.5h15.113l-5.685 5.68L13.5 19.5 21 12l-7.5-7.5Z" fill="currentColor"/></symbol><symbol id="icon-big-arrow-right-2" viewBox="0 0 98 62"><path fill-rule="evenodd" clip-rule="evenodd" d="m68.2.314 29.18 30.933-29.186 30.445-1.444-1.384 26.906-28.066H0v-2h93.682L66.744 1.686 68.2.314Z" fill="#FEFDFA"/></symbol><symbol id="icon-big-arrow-right" viewBox="0 0 48 30"><path fill-rule="evenodd" clip-rule="evenodd" d="M33.485 0 48 15.118 33.48 30l-1.424-1.375L44.276 16.1H0v-1.975h44.303L32.05 1.365 33.485 0Z" fill="currentColor"/></symbol><symbol id="icon-big-arrow" viewBox="0 0 51 82"><g clip-path="url(#big-arrow-a)"><path fill-rule="evenodd" clip-rule="evenodd" d="M51 57.204 25.3 82 0 57.194l2.338-2.431L23.63 75.639V0h3.357v75.684l21.694-20.93L51 57.203Z" fill="#FEFDFA"/></g></symbol><symbol id="icon-bribes" viewBox="0 0 48 48"><path fill-rule="evenodd" clip-rule="evenodd" d="M9.3 16.3H24v1.4H10.7v13.6h4.8v1.4H9.3V16.3Zm27 1.4H30v-1.4h7.7v16.4H21.5v-1.4h14.8V17.7Z" fill="currentColor"/><path fill-rule="evenodd" clip-rule="evenodd" d="M23.5 1.7c-12.024 0-21.8 9.974-21.8 22.311 0 12.338 9.776 22.312 21.8 22.312 12.026 0 21.8-9.974 21.8-22.312 0-12.337-9.774-22.31-21.8-22.31ZM.3 24.011C.3 10.931 10.674.3 23.5.3c12.828 0 23.2 10.63 23.2 23.711 0 13.08-10.372 23.712-23.2 23.712C10.674 47.723.3 37.092.3 24.01Z" fill="currentColor"/><path fill-rule="evenodd" clip-rule="evenodd" d="M23.5 5.7c-9.812 0-17.8 8.181-17.8 18.314 0 5.456 2.318 10.35 5.991 13.703l17.386-31.1a17.328 17.328 0 0 0-5.576-.917ZM4.3 24.014C4.3 13.144 12.88 4.3 23.5 4.3c2.41 0 4.718.456 6.844 1.29l.747.292-19.009 34.005-.647-.538C7.08 35.734 4.3 30.206 4.3 24.014ZM34.288 7.682l.638.486c4.72 3.593 7.776 9.356 7.776 15.846 0 10.87-8.578 19.714-19.2 19.714-2.773 0-5.41-.604-7.79-1.69l-.696-.318L34.287 7.682Zm.419 2.101L16.994 41.066a17.315 17.315 0 0 0 6.507 1.262c9.812 0 17.8-8.181 17.8-18.314 0-5.749-2.574-10.874-6.595-14.23Z" fill="currentColor"/><path fill-rule="evenodd" clip-rule="evenodd" d="M10.5 20.8a3.8 3.8 0 0 0 3.8-3.8h1.4a5.2 5.2 0 0 1-5.2 5.2v-1.4ZM32.7 17a3.8 3.8 0 0 0 3.8 3.8v1.4a5.2 5.2 0 0 1-5.2-5.2h1.4ZM10.5 28.2a3.8 3.8 0 0 1 3.8 3.8h1.4a5.2 5.2 0 0 0-5.2-5.2v1.4ZM32.7 32a3.8 3.8 0 0 1 3.8-3.8v-1.4a5.2 5.2 0 0 0-5.2 5.2h1.4Z" fill="currentColor"/></symbol><symbol id="icon-btn-shape" viewBox="0 0 90 44"><path d="m84.59 16.38.417-.248-.417.249.016.027c.986 1.647 1.806 3.017 2.602 4.033.51.65 1.03 1.184 1.605 1.559-.576.375-1.096.91-1.605 1.56-.796 1.016-1.616 2.386-2.602 4.032l-.016.027c-1.517 2.535-3.468 5.792-6.422 9.66-4.731 6.195-12.644 6.221-17.185 6.221H29.12c-4.52 0-12.397-.026-17.106-6.22l-.398.303.398-.302c-2.941-3.869-4.883-7.126-6.394-9.661l-.016-.027c-.981-1.646-1.798-3.017-2.59-4.032-.542-.696-1.097-1.258-1.719-1.636.532-.37 1.016-.877 1.492-1.485.794-1.016 1.612-2.386 2.595-4.033l.016-.026c1.514-2.535 3.46-5.793 6.407-9.661l-.398-.303.398.303c3.266-4.287 8.058-5.624 12.221-6.037L48.5.5h12.483c4.54 0 12.454.026 17.185 6.22 2.954 3.869 4.904 7.126 6.422 9.66Z" stroke="currentColor"/></symbol><symbol id="icon-burger" viewBox="0 0 24 24"><path d="M0 10h24V8H0v2ZM0 17h24v-2H0v2Z" fill="currentColor"/></symbol><symbol id="icon-button-form" viewBox="0 0 35 54"><g clip-path="url(#button-form-a)"><path fill-rule="evenodd" clip-rule="evenodd" d="M6.193 19.789c1.889-3.114 4.329-7.137 8.025-11.914C20.311 0 30.48 0 36.078 0h241.844c5.598 0 15.767 0 21.86 7.875 3.696 4.777 6.137 8.8 8.024 11.914 2.485 4.096 4.014 6.617 6.194 7.211-2.18.593-3.709 3.115-6.194 7.211-1.887 3.114-4.328 7.137-8.024 11.914C293.689 54 283.52 54 277.922 54H36.078c-5.598 0-15.767 0-21.86-7.875-3.696-4.777-6.136-8.8-8.025-11.914C3.71 30.115 2.18 27.594 0 27c2.18-.593 3.709-3.115 6.193-7.211Z" fill="currentColor"/></g></symbol><symbol id="icon-chevron" viewBox="0 0 24 24"><path d="M12 17 4 9.105 5.12 8 12 14.79 18.88 8 20 9.105 12 17Z" fill="currentColor"/></symbol><symbol id="icon-close" viewBox="0 0 24 24"><path d="M18 7.05 16.95 6 12 10.95 7.05 6 6 7.05 10.95 12 6 16.95 7.05 18 12 13.05 16.95 18 18 16.95 13.05 12 18 7.05Z" fill="currentColor"/></symbol><symbol id="icon-culture" viewBox="0 0 48 48"><path d="M4.053 2.827C1.333 4.187.027 6.294 0 9.414c0 2.56 1.12 4.613 3.173 5.627 2.88 1.466 6.267.533 7.654-2.134.613-1.227.48-3.68-.267-4.8-.8-1.173-2.24-1.893-3.573-1.787-.8.054-1.014.187-1.067.694-.133.8.373 1.386 1.2 1.386 1.014 0 1.947 1.12 1.947 2.32 0 1.2-.533 2.054-1.6 2.614-1.04.533-1.76.507-3.094-.16-2.373-1.12-2.986-4-1.44-6.48C4.027 4.987 6.08 4 8.053 4.214c2.64.32 5.12 2.266 5.947 4.693 1.12 3.307-.16 6.8-3.066 8.294-.987.506-3.334 1.013-5.174 1.146-1.227.054-1.787.72-1.333 1.44.24.4.746.507 2.72.56l2.453.08.054 13.12.08 13.12H11.6l.08-13.146.054-13.12h3.2v12.907c0 13.92-.027 13.653 1.386 13.44l.614-.08.08-13.147.053-13.12h3.2v12.907c0 13.92-.027 13.653 1.387 13.44l.613-.08.08-13.147.053-13.12h3.2v12.507c0 7.493.107 12.8.267 13.2.32.853 1.44.96 1.867.187.16-.347.267-4.987.267-13.2V20.4h3.2l.053 13.12.08 13.147.613.08c1.414.213 1.387.48 1.387-13.44V20.4h3.2l.053 12.96c.08 12.027.107 13.014.56 13.28.32.214.587.214.934 0 .426-.267.453-1.253.533-13.28l.053-12.96h2.4c2.32 0 2.427-.027 2.72-.667.454-1.013-.08-1.36-2.773-1.68-5.067-.64-7.387-3.067-7.093-7.387.133-1.893.72-3.2 2-4.48 1.28-1.307 2.587-1.867 4.48-2 2-.133 3.627.667 4.773 2.293 1.067 1.494 1.254 3.76.454 5.067-.774 1.227-2.054 1.92-3.547 1.92-1.013 0-1.387-.133-2.053-.8-1.68-1.68-1.28-3.627.826-4.293 1.014-.32 1.147-.454 1.147-1.174 0-.746-.053-.8-1.2-.88-2.32-.133-4 1.627-4 4.16 0 1.787.48 2.907 1.68 3.974 1.653 1.44 4.853 1.573 6.827.266 1.813-1.2 2.533-2.586 2.666-5.04.08-1.84 0-2.266-.64-3.546-.373-.8-1.173-1.867-1.786-2.374C43.44 1.947 44.028 2 23.868 2H5.68l-1.627.827Zm29.761 2.16c-.427.453-1.12 1.467-1.493 2.187-.64 1.226-.72 1.653-.72 4.16 0 3.093.426 4.32 2.08 6.053l.826.88H13.494l.826-.88c1.414-1.466 2.027-3.013 2.16-5.44.134-2.693-.373-4.507-1.84-6.453l-1.04-1.36h21.014l-.8.853Z" fill="currentColor"/></symbol><symbol id="icon-download" viewBox="0 0 24 24"><path d="M19.5 18v3h-15v-3H3v3a1.5 1.5 0 0 0 1.5 1.5h15A1.5 1.5 0 0 0 21 21v-3h-1.5Zm0-7.5-1.058-1.057-5.692 5.684V1.5h-1.5v13.627L5.558 9.444 4.5 10.5 12 18l7.5-7.5Z" fill="currentColor"/></symbol><symbol id="icon-drugs" viewBox="0 0 49 49"><path d="M4.94 11A23.27 23.27 0 0 0 1 24.011c0 12.71 10.074 23.012 22.5 23.012S46 36.72 46 24.01C46 11.303 35.926 1 23.5 1c-5.128 0-9.856 1.755-13.64 4.71" stroke="currentColor" stroke-width="1.4"/><path d="M9.16 12C6.56 15.275 5 19.457 5 24.014c0 5.978 2.684 11.311 6.881 14.797L30.088 6.24A18.016 18.016 0 0 0 23.5 5c-5.012 0-9.56 2.049-12.89 5.376M42 24.014c0 10.501-8.283 19.014-18.5 19.014-2.67 0-5.208-.581-7.5-1.628L34.5 8.725c4.55 3.464 7.5 9.022 7.5 15.289Z" stroke="currentColor" stroke-width="1.4"/><mask id="drugs-a" maskUnits="userSpaceOnUse" x="3.258" y="4.804" width="42" height="41" fill="#000"><path fill="#fff" d="M3.258 4.804h42v41h-42z"/><path d="M10.285 5.35c1.03.469 1.52 1.632 1.1 2.629-.09.195-.39.596-.68.879l-.52.508 2.599 2.54c1.429 1.398 2.638 2.542 2.698 2.542.06 0 .84-.724 1.749-1.613 1.839-1.798 2.099-1.964 3.048-1.886 1.72.137 2.469 2.17 1.27 3.43l-.26.274 7.305 7.153c7.905 7.73 7.526 7.319 7.526 8.374 0 .596-.28 1.134-.89 1.71-.28.264-.51.528-.51.587 0 .059.36.45.81.88 1.29 1.25 1.57 1.915 1.25 2.892l-.17.508 3.847 3.772c3.298 3.225 3.848 3.801 3.798 3.997a.434.434 0 0 1-.31.273c-.23.059-.66-.332-4.127-3.723l-3.868-3.782-.31.157c-.4.205-1.34.205-1.749 0-.18-.088-.76-.577-1.29-1.095l-.979-.938-.47.45c-.579.557-1.049.762-1.758.762-1.03 0-.95.068-8.655-7.456l-7.126-6.977-.44.234c-.53.293-1.349.323-1.889.069-.51-.235-1.009-.85-1.149-1.407-.1-.401-.09-.567.05-1.027.15-.508.27-.654 1.71-2.042l1.558-1.485-2.618-2.531c-1.44-1.398-2.629-2.56-2.649-2.58-.03-.02-.23.127-.45.322-.51.45-.809.557-1.459.557-1.389 0-2.388-1.3-1.988-2.599.13-.44.36-.694 2.068-2.365 1.23-1.192 2.07-1.934 2.299-2.032.5-.196 1.14-.186 1.63.039Zm-1.43.83c-.149.079-1.038.9-1.978 1.838-1.749 1.73-1.919 1.964-1.769 2.53.11.411.33.655.73.812.73.283.88.185 2.778-1.642.96-.919 1.799-1.788 1.879-1.935.55-1.036-.58-2.14-1.64-1.603Zm.28 4.212-.34.342 2.59 2.54c1.429 1.398 2.648 2.542 2.698 2.542.06 0 .26-.157.45-.342l.34-.342-2.59-2.541c-1.428-1.397-2.648-2.54-2.698-2.54-.06 0-.26.155-.45.341Zm10.315 1.554c-.15.078-2.1 1.935-4.338 4.133-3.508 3.44-4.077 4.036-4.127 4.349-.12.616.29 1.212.94 1.378.629.156.709.088 4.936-4.026 2.249-2.18 4.148-4.085 4.228-4.232.08-.146.14-.449.14-.674 0-.322-.06-.459-.34-.733-.28-.273-.42-.332-.75-.332-.23 0-.54.059-.69.137Zm.11 4.378c-.57.557-1.03 1.045-1.03 1.104 0 .049 1.68 1.71 3.718 3.684l3.728 3.586 1.1-1.075 1.098-1.075-3.727-3.615c-2.05-1.984-3.758-3.606-3.798-3.606-.03 0-.53.45-1.09.997Zm-2.1 2.052c-.18.176-.329.361-.329.42 0 .049 1.659 1.72 3.698 3.713l3.698 3.606.4-.38.4-.382-3.719-3.645c-2.049-2.003-3.748-3.645-3.767-3.645-.03 0-.2.137-.38.313Zm-2.158 2.11-1.07 1.046 3.748 3.665 3.748 3.664 1.1-1.075 1.099-1.075-3.718-3.635c-2.049-2.003-3.748-3.645-3.778-3.645-.03 0-.54.47-1.129 1.056Zm10.274 5.883-3.198 3.127 3.048 2.99c1.679 1.642 3.168 3.05 3.318 3.128.35.175 1.01.175 1.36 0 .15-.078 1.338-1.193 2.638-2.473 2.019-1.983 2.368-2.374 2.428-2.697.17-.87.18-.85-3.178-4.153-1.709-1.67-3.138-3.049-3.168-3.049-.03 0-1.49 1.407-3.248 3.127Zm7.495 7.623-.799.791 1.01.967c.969.938 1.029.978 1.449.978.61 0 1.049-.284 1.199-.772.06-.206.08-.509.05-.655-.08-.284-1.81-2.091-2.009-2.091-.06 0-.46.352-.9.782Z"/></mask><path d="M10.285 5.35c1.03.469 1.52 1.632 1.1 2.629-.09.195-.39.596-.68.879l-.52.508 2.599 2.54c1.429 1.398 2.638 2.542 2.698 2.542.06 0 .84-.724 1.749-1.613 1.839-1.798 2.099-1.964 3.048-1.886 1.72.137 2.469 2.17 1.27 3.43l-.26.274 7.305 7.153c7.905 7.73 7.526 7.319 7.526 8.374 0 .596-.28 1.134-.89 1.71-.28.264-.51.528-.51.587 0 .059.36.45.81.88 1.29 1.25 1.57 1.915 1.25 2.892l-.17.508 3.847 3.772c3.298 3.225 3.848 3.801 3.798 3.997a.434.434 0 0 1-.31.273c-.23.059-.66-.332-4.127-3.723l-3.868-3.782-.31.157c-.4.205-1.34.205-1.749 0-.18-.088-.76-.577-1.29-1.095l-.979-.938-.47.45c-.579.557-1.049.762-1.758.762-1.03 0-.95.068-8.655-7.456l-7.126-6.977-.44.234c-.53.293-1.349.323-1.889.069-.51-.235-1.009-.85-1.149-1.407-.1-.401-.09-.567.05-1.027.15-.508.27-.654 1.71-2.042l1.558-1.485-2.618-2.531c-1.44-1.398-2.629-2.56-2.649-2.58-.03-.02-.23.127-.45.322-.51.45-.809.557-1.459.557-1.389 0-2.388-1.3-1.988-2.599.13-.44.36-.694 2.068-2.365 1.23-1.192 2.07-1.934 2.299-2.032.5-.196 1.14-.186 1.63.039Zm-1.43.83c-.149.079-1.038.9-1.978 1.838-1.749 1.73-1.919 1.964-1.769 2.53.11.411.33.655.73.812.73.283.88.185 2.778-1.642.96-.919 1.799-1.788 1.879-1.935.55-1.036-.58-2.14-1.64-1.603Zm.28 4.212-.34.342 2.59 2.54c1.429 1.398 2.648 2.542 2.698 2.542.06 0 .26-.157.45-.342l.34-.342-2.59-2.541c-1.428-1.397-2.648-2.54-2.698-2.54-.06 0-.26.155-.45.341Zm10.315 1.554c-.15.078-2.1 1.935-4.338 4.133-3.508 3.44-4.077 4.036-4.127 4.349-.12.616.29 1.212.94 1.378.629.156.709.088 4.936-4.026 2.249-2.18 4.148-4.085 4.228-4.232.08-.146.14-.449.14-.674 0-.322-.06-.459-.34-.733-.28-.273-.42-.332-.75-.332-.23 0-.54.059-.69.137Zm.11 4.378c-.57.557-1.03 1.045-1.03 1.104 0 .049 1.68 1.71 3.718 3.684l3.728 3.586 1.1-1.075 1.098-1.075-3.727-3.615c-2.05-1.984-3.758-3.606-3.798-3.606-.03 0-.53.45-1.09.997Zm-2.1 2.052c-.18.176-.329.361-.329.42 0 .049 1.659 1.72 3.698 3.713l3.698 3.606.4-.38.4-.382-3.719-3.645c-2.049-2.003-3.748-3.645-3.767-3.645-.03 0-.2.137-.38.313Zm-2.158 2.11-1.07 1.046 3.748 3.665 3.748 3.664 1.1-1.075 1.099-1.075-3.718-3.635c-2.049-2.003-3.748-3.645-3.778-3.645-.03 0-.54.47-1.129 1.056Zm10.274 5.883-3.198 3.127 3.048 2.99c1.679 1.642 3.168 3.05 3.318 3.128.35.175 1.01.175 1.36 0 .15-.078 1.338-1.193 2.638-2.473 2.019-1.983 2.368-2.374 2.428-2.697.17-.87.18-.85-3.178-4.153-1.709-1.67-3.138-3.049-3.168-3.049-.03 0-1.49 1.407-3.248 3.127Zm7.495 7.623-.799.791 1.01.967c.969.938 1.029.978 1.449.978.61 0 1.049-.284 1.199-.772.06-.206.08-.509.05-.655-.08-.284-1.81-2.091-2.009-2.091-.06 0-.46.352-.9.782Z" fill="currentColor"/><path d="M10.285 5.35c1.03.469 1.52 1.632 1.1 2.629-.09.195-.39.596-.68.879l-.52.508 2.599 2.54c1.429 1.398 2.638 2.542 2.698 2.542.06 0 .84-.724 1.749-1.613 1.839-1.798 2.099-1.964 3.048-1.886 1.72.137 2.469 2.17 1.27 3.43l-.26.274 7.305 7.153c7.905 7.73 7.526 7.319 7.526 8.374 0 .596-.28 1.134-.89 1.71-.28.264-.51.528-.51.587 0 .059.36.45.81.88 1.29 1.25 1.57 1.915 1.25 2.892l-.17.508 3.847 3.772c3.298 3.225 3.848 3.801 3.798 3.997a.434.434 0 0 1-.31.273c-.23.059-.66-.332-4.127-3.723l-3.868-3.782-.31.157c-.4.205-1.34.205-1.749 0-.18-.088-.76-.577-1.29-1.095l-.979-.938-.47.45c-.579.557-1.049.762-1.758.762-1.03 0-.95.068-8.655-7.456l-7.126-6.977-.44.234c-.53.293-1.349.323-1.889.069-.51-.235-1.009-.85-1.149-1.407-.1-.401-.09-.567.05-1.027.15-.508.27-.654 1.71-2.042l1.558-1.485-2.618-2.531c-1.44-1.398-2.629-2.56-2.649-2.58-.03-.02-.23.127-.45.322-.51.45-.809.557-1.459.557-1.389 0-2.388-1.3-1.988-2.599.13-.44.36-.694 2.068-2.365 1.23-1.192 2.07-1.934 2.299-2.032.5-.196 1.14-.186 1.63.039Zm-1.43.83c-.149.079-1.038.9-1.978 1.838-1.749 1.73-1.919 1.964-1.769 2.53.11.411.33.655.73.812.73.283.88.185 2.778-1.642.96-.919 1.799-1.788 1.879-1.935.55-1.036-.58-2.14-1.64-1.603Zm.28 4.212-.34.342 2.59 2.54c1.429 1.398 2.648 2.542 2.698 2.542.06 0 .26-.157.45-.342l.34-.342-2.59-2.541c-1.428-1.397-2.648-2.54-2.698-2.54-.06 0-.26.155-.45.341Zm10.315 1.554c-.15.078-2.1 1.935-4.338 4.133-3.508 3.44-4.077 4.036-4.127 4.349-.12.616.29 1.212.94 1.378.629.156.709.088 4.936-4.026 2.249-2.18 4.148-4.085 4.228-4.232.08-.146.14-.449.14-.674 0-.322-.06-.459-.34-.733-.28-.273-.42-.332-.75-.332-.23 0-.54.059-.69.137Zm.11 4.378c-.57.557-1.03 1.045-1.03 1.104 0 .049 1.68 1.71 3.718 3.684l3.728 3.586 1.1-1.075 1.098-1.075-3.727-3.615c-2.05-1.984-3.758-3.606-3.798-3.606-.03 0-.53.45-1.09.997Zm-2.1 2.052c-.18.176-.329.361-.329.42 0 .049 1.659 1.72 3.698 3.713l3.698 3.606.4-.38.4-.382-3.719-3.645c-2.049-2.003-3.748-3.645-3.767-3.645-.03 0-.2.137-.38.313Zm-2.158 2.11-1.07 1.046 3.748 3.665 3.748 3.664 1.1-1.075 1.099-1.075-3.718-3.635c-2.049-2.003-3.748-3.645-3.778-3.645-.03 0-.54.47-1.129 1.056Zm10.274 5.883-3.198 3.127 3.048 2.99c1.679 1.642 3.168 3.05 3.318 3.128.35.175 1.01.175 1.36 0 .15-.078 1.338-1.193 2.638-2.473 2.019-1.983 2.368-2.374 2.428-2.697.17-.87.18-.85-3.178-4.153-1.709-1.67-3.138-3.049-3.168-3.049-.03 0-1.49 1.407-3.248 3.127Zm7.495 7.623-.799.791 1.01.967c.969.938 1.029.978 1.449.978.61 0 1.049-.284 1.199-.772.06-.206.08-.509.05-.655-.08-.284-1.81-2.091-2.009-2.091-.06 0-.46.352-.9.782Z" stroke="currentColor" stroke-width=".6" mask="url(#drugs-a)"/><path d="m25.406 16.173 2.467 2.949-7.047 12.268-2.022-3.569 6.602-11.648Z" fill="#F4EFE5"/></symbol><symbol id="icon-education" viewBox="0 0 50 50"><path d="m24.267 1.13.003-.008.004-.007c.147-.251.424-.365.724-.365s.577.114.724.365l.004.007.004.007a.64.64 0 0 1 .05.164c.01.055.019.121.027.195.016.149.03.343.041.571.023.458.035 1.065.035 1.747 0 .987-.006 1.586-.037 1.964-.03.372-.089.59-.245.758-.152.168-.342.291-.572.297-.225.005-.428-.106-.604-.267a.658.658 0 0 1-.189-.276 1.71 1.71 0 0 1-.084-.439c-.033-.365-.039-.968-.039-2.011 0-.689.013-1.302.035-1.765.012-.23.026-.427.042-.576.008-.075.017-.142.027-.197a.644.644 0 0 1 .05-.165ZM16.652 2.767l.01.01a.959.959 0 0 1 .078.13c.026.049.056.11.089.179.066.139.146.32.236.528.18.416.4.946.613 1.475.212.53.418 1.06.572 1.474.076.207.14.388.186.527.022.068.041.13.054.18.01.039.027.1.027.155 0 .373-.258.645-.538.758-.281.113-.658.092-.898-.207a.891.891 0 0 1-.08-.13 4.241 4.241 0 0 1-.09-.177 16.823 16.823 0 0 1-.237-.526c-.18-.414-.4-.944-.613-1.472A58.81 58.81 0 0 1 15.49 4.2c-.077-.207-.141-.388-.186-.526a3.584 3.584 0 0 1-.055-.18.65.65 0 0 1-.026-.156c0-.105.023-.214.058-.31a.768.768 0 0 1 .167-.274c.167-.166.411-.222.613-.22.197.002.441.06.591.234ZM32.916 7.976c-.24.3-.617.32-.898.207-.28-.113-.538-.385-.538-.758a.65.65 0 0 1 .027-.156c.013-.05.032-.11.054-.18.046-.138.11-.319.186-.526.154-.415.36-.944.572-1.474.213-.529.432-1.059.613-1.475.09-.208.17-.39.236-.528.033-.07.063-.13.09-.18a.949.949 0 0 1 .078-.129l.005-.006c.242-.293.619-.307.897-.193.28.114.537.385.537.759a.644.644 0 0 1-.027.156c-.013.05-.032.11-.054.18-.046.138-.11.319-.186.526-.154.414-.36.944-.572 1.472a60.315 60.315 0 0 1-.613 1.472c-.09.208-.171.388-.237.526a4.368 4.368 0 0 1-.089.177.882.882 0 0 1-.081.13Zm0 0-.195-.157.194.157ZM9.43 10.612c-.857-.857-1.368-1.394-1.613-1.766-.123-.187-.206-.369-.204-.554a.653.653 0 0 1 .216-.46.655.655 0 0 1 .46-.216c.184-.003.366.08.552.202.37.244.904.752 1.755 1.602.485.484.926.945 1.246 1.297.16.176.293.328.386.444.047.058.087.11.116.155.015.022.03.047.043.072v.001c.008.016.035.07.035.138a.7.7 0 0 1-.094.328 1.248 1.248 0 0 1-.197.264c-.075.079-.163.151-.256.206a.657.657 0 0 1-.325.1.324.324 0 0 1-.136-.033.679.679 0 0 1-.076-.042 2.116 2.116 0 0 1-.16-.117 9.488 9.488 0 0 1-.453-.385c-.356-.32-.817-.758-1.295-1.236ZM37.574 11.552c0-.064.024-.117.032-.135a.679.679 0 0 1 .043-.076c.03-.047.07-.102.116-.16.094-.12.226-.275.386-.453.32-.356.758-.817 1.236-1.295.857-.857 1.395-1.367 1.767-1.613.186-.123.368-.206.553-.203.2.003.347.103.46.216a.654.654 0 0 1 .216.458c.003.185-.08.367-.202.553-.244.37-.751.905-1.602 1.755-.484.485-.945.925-1.298 1.246-.176.16-.328.293-.444.386-.057.046-.11.086-.154.116a.652.652 0 0 1-.072.043h-.001c-.016.008-.07.035-.138.035a.7.7 0 0 1-.328-.094 1.25 1.25 0 0 1-.265-.197 1.222 1.222 0 0 1-.205-.256.657.657 0 0 1-.1-.326ZM38.962 25.143l.408-.138h.001c1.655-.569 3.87-1.171 5.734-1.598.931-.213 1.78-.384 2.428-.484.323-.05.602-.084.819-.096.108-.006.207-.007.29 0 .074.005.17.018.249.06.133.07.217.191.267.303.052.115.08.244.089.368.009.125 0 .256-.034.376a.635.635 0 0 1-.21.336l-.008.006a.532.532 0 0 1-.112.058 1.804 1.804 0 0 1-.122.042c-.091.028-.208.06-.34.092-.267.065-.61.136-.964.194-5.559.998-12.11 3.363-17.537 6.348-7.566 4.136-13.943 9.411-19.74 16.334-.559.679-.959 1.14-1.248 1.433a2.988 2.988 0 0 1-.377.334.64.64 0 0 1-.358.139.868.868 0 0 1-.603-.223.79.79 0 0 1-.244-.586c0-.06.017-.115.03-.15.015-.04.035-.082.057-.124.044-.084.107-.185.182-.298.153-.227.371-.522.641-.866a57.16 57.16 0 0 1 2.163-2.563l.85-.953-.472-.278c-1.418-.835-1.984-1.15-3.934-2.112h-.001a62.445 62.445 0 0 0-5.138-2.303 7.676 7.676 0 0 1-.44-.188 1.112 1.112 0 0 1-.293-.19c-.185-.179-.186-.397-.186-.59 0-.189.012-.391.098-.549a.5.5 0 0 1 .214-.21.644.644 0 0 1 .292-.065c.191 0 .43.058.72.152.295.096.67.24 1.14.426 2.183.882 5.585 2.537 7.69 3.75l1.487.857 1.262-1.226v-.001c.777-.75 1.858-1.768 2.42-2.278v-.001c.315-.283.547-.513.69-.678.024-.029.046-.054.063-.077a12.55 12.55 0 0 0-.47-.288 47.267 47.267 0 0 0-1.278-.713 86.55 86.55 0 0 0-3.265-1.68c-2.72-1.317-5.756-2.53-8.347-3.34l.074-.238m35.363-6.524L16.984 36.01l-.126.216m22.104-11.082-.061-.71c-.505-5.78-4.538-10.692-10.086-12.308a14.271 14.271 0 0 0-5.625-.44c-2.344.285-4.811 1.306-6.725 2.767-.48.368-1.112.97-1.697 1.59-.584.618-1.135 1.272-1.446 1.747a14.504 14.504 0 0 0-2.288 6.345 32.85 32.85 0 0 1-.124.929 42.108 42.108 0 0 1-1.407-.416 67.013 67.013 0 0 0-5.376-1.433 23.629 23.629 0 0 0-1.927-.35 5.703 5.703 0 0 0-.643-.051 1.73 1.73 0 0 0-.238.012.627.627 0 0 0-.212.062.62.62 0 0 0-.267.3 1.126 1.126 0 0 0-.049.749c.035.12.098.248.209.341a.452.452 0 0 0 .108.064c.032.014.068.027.105.04.075.025.168.051.272.077.21.053.473.108.738.154h.005c1.557.239 5.442 1.225 7.452 1.895 3.214 1.063 6.592 2.492 9.36 3.946h.001a86.29 86.29 0 0 1 4.4 2.506l15.521-7.816ZM3.6 31.667c-1.041-.318-2.045-.66-2.222-.737-.547-.28-.445-1.105.14-1.105.317 0 2.908.8 4.8 1.473 3.365 1.22 7.442 3.124 10.541 4.927M3.6 31.667c2.604.812 5.652 2.031 8.382 3.352L3.6 31.667Zm13.26 4.558c1.244.724 1.485.826 1.675.686l4.535-3.39a83.642 83.642 0 0 0-2.553 1.879l-.15-.2h-.001a210.926 210.926 0 0 0-1.986 1.515h-.007a.58.58 0 0 1-.186-.054c-.22-.09-.575-.287-1.202-.652l-.126.216Zm11.187-22.552h-.001c-.72-.195-1.445-.27-2.799-.309-1.918-.05-2.739.074-4.219.571-4.696 1.582-8.2 6.168-8.275 10.789l-.011 1.01 1.556.634c2.376.958 6.692 3.123 8.976 4.487l1.76 1.063.58-.373c1.292-.831 3.497-2.067 5.37-3.01a82.714 82.714 0 0 1 3.391-1.573c1.212-.534 2.333-1.002 2.733-1.122h.001c.042-.013.065-.02.077-.025a2.014 2.014 0 0 0 .012-.367c-.006-.178-.02-.416-.04-.738v-.001c-.087-1.592-.434-2.93-1.156-4.412v-.002c-1.57-3.274-4.495-5.7-7.955-6.622ZM7.983 17.081l.01.01c.173.15.232.394.234.59.002.202-.054.447-.22.613a.766.766 0 0 1-.275.167.912.912 0 0 1-.309.059.648.648 0 0 1-.156-.027 3.662 3.662 0 0 1-.18-.054c-.137-.046-.318-.11-.524-.186-.414-.154-.943-.36-1.47-.574a57.49 57.49 0 0 1-1.472-.616 16.357 16.357 0 0 1-.528-.24 4.084 4.084 0 0 1-.18-.092.924.924 0 0 1-.127-.08c-.187-.143-.25-.39-.255-.586-.004-.202.053-.447.22-.613a.766.766 0 0 1 .274-.168.912.912 0 0 1 .309-.058c.055 0 .117.016.156.026.05.014.11.033.18.055.138.045.319.11.526.186.415.153.945.36 1.474.572.53.212 1.06.432 1.476.612.208.09.39.171.528.237.07.033.13.063.18.088a.949.949 0 0 1 .129.08ZM44.204 16.122c.999-.43 1.642-.685 2.072-.797.215-.056.398-.083.558-.066a.661.661 0 0 1 .413.193c.166.166.223.41.221.612-.002.197-.061.442-.234.591l-.01.01a.945.945 0 0 1-.13.078 4.6 4.6 0 0 1-.18.089c-.138.066-.32.147-.527.237-.416.18-.947.4-1.476.612-.53.213-1.06.419-1.474.572-.207.076-.388.14-.526.186-.07.022-.13.041-.18.054a.644.644 0 0 1-.157.027.794.794 0 0 1-.584-.241.848.848 0 0 1-.224-.593v-.023a.675.675 0 0 1 .054-.312c.065-.134.187-.227.336-.314.288-.169.853-.408 1.937-.868.036-.015.073-.03.11-.047Zm0 0h-.001l.099.23m-.098-.23.098.23m0 0c2.006-.863 2.502-.99 2.768-.723.204.203.19.673 0 .838-.279.216-4.229 1.803-4.495 1.803-.33 0-.56-.241-.56-.584 0-.073-.001-.13.013-.182.06-.216.395-.355 2.274-1.152ZM47.863 29.672h.002l1.111.814.248.034a.66.66 0 0 1-.164.374c-.102.113-.25.201-.446.29-.39.176-1.088.4-2.331.785-2.997.948-5.22 1.844-8.537 3.477-4.177 2.05-6.755 3.642-10.502 6.452-2.353 1.784-3.743 2.971-6.29 5.391a36.272 36.272 0 0 1-1.493 1.355c-.202.172-.376.313-.509.411-.066.05-.127.091-.178.122a.715.715 0 0 1-.08.042.335.335 0 0 1-.134.031.853.853 0 0 1-.571-.226c-.113-.113-.217-.26-.223-.46-.006-.188.078-.37.202-.556.246-.367.76-.895 1.623-1.739 6.666-6.537 13.907-11.254 22.46-14.619 1.35-.535 4.97-1.771 5.812-1.978ZM49.224 37.933a.629.629 0 0 1-.13.328 1.18 1.18 0 0 1-.347.273c-.297.171-.823.4-1.743.791h-.002a64.693 64.693 0 0 0-15.206 8.944c-.595.468-1.033.768-1.372.897a.915.915 0 0 1-.514.06.711.711 0 0 1-.404-.255.651.651 0 0 1-.17-.455c.007-.172.084-.334.193-.487.215-.3.628-.664 1.247-1.144 5.11-3.988 10.668-7.2 16.482-9.533h.002l1.246-.149-.01-.25h.003c.25-.01.456.12.583.307a.98.98 0 0 1 .142.673Zm0 0-.248-.032.248.031v.001Z" fill="currentColor" stroke="currentColor" stroke-width=".5"/></symbol><symbol id="icon-eye" viewBox="0 0 24 24"><path d="M23.185 11.696c-.032-.074-.827-1.835-2.592-3.6C18.241 5.742 15.27 4.5 12 4.5c-3.27 0-6.24 1.243-8.593 3.595C1.642 9.861.844 11.625.815 11.696a.75.75 0 0 0 0 .61c.032.074.827 1.834 2.592 3.6C5.759 18.256 8.73 19.5 12 19.5c3.27 0 6.24-1.243 8.593-3.594 1.765-1.766 2.56-3.526 2.592-3.6a.75.75 0 0 0 0-.61ZM12 18c-2.886 0-5.407-1.05-7.493-3.117A12.511 12.511 0 0 1 2.344 12a12.499 12.499 0 0 1 2.163-2.883C6.593 7.05 9.114 6 12 6s5.407 1.05 7.493 3.117A12.507 12.507 0 0 1 21.661 12c-.676 1.262-3.62 6-9.661 6Zm0-10.5a4.5 4.5 0 1 0 0 9 4.5 4.5 0 0 0 0-9Zm0 7.5a3 3 0 1 1 0-5.999A3 3 0 0 1 12 15Z" fill="currentColor"/></symbol><symbol id="icon-file" viewBox="0 0 40 40"><path d="M10.465 3H8.388c-2.048 0-2.087 0-2.233.214C6.02 3.408 6 5.223 6 20.697v17.26l.243.232.233.243h26.579l.262-.204.252-.194v-4.359c0-4.932-.069-18.402-.069-22.932L10.465 3ZM33.5 10.743l.07 21.67v-21.88l-3.758-3.767L26.046 3H10.465L33.5 10.743ZM25.027 7.64c0 2.893.019 3.407.155 3.592l.146.213h6.882v25.628H7.36V4.262h17.668V7.64Zm3.785.068 2.379 2.378h-4.805V7.708c0-1.31.01-2.378.029-2.378.01 0 1.087 1.068 2.398 2.378Z" fill="currentColor"/></symbol><symbol id="icon-glasses" viewBox="0 0 24 24"><path d="M18.75 3.75a.75.75 0 1 0 0 1.5 1.5 1.5 0 0 1 1.5 1.5v5.445a4.125 4.125 0 0 0-6.592 2.055h-3.316a4.125 4.125 0 0 0-6.592-2.055V6.75a1.5 1.5 0 0 1 1.5-1.5.75.75 0 0 0 0-1.5 3 3 0 0 0-3 3v8.625a4.125 4.125 0 0 0 8.232.375h3.036a4.125 4.125 0 0 0 8.232-.375V6.75a3 3 0 0 0-3-3ZM6.375 18a2.625 2.625 0 1 1 0-5.25 2.625 2.625 0 0 1 0 5.25Zm11.25 0a2.625 2.625 0 1 1 0-5.25 2.625 2.625 0 0 1 0 5.25Z" fill="currentColor"/></symbol><symbol id="icon-link" viewBox="0 0 8 8"><g clip-path="url(#link-a)"><path fill-rule="evenodd" clip-rule="evenodd" d="M6.537.824H1V0h7v7h-.824V1.462L.64 8 0 7.36 6.537.825Z" fill="currentColor"/></g></symbol><symbol id="icon-logo-1" viewBox="0 0 124 104"><path d="m76.23 33.596.439-18.703H65.423l.439 18.703h2.196v32.32l-7.442 4.57.33 33.084-16.22-.883 2.557-100.13L80.72 4.482l.334 66.004-7.002-4.57v-32.32h2.179ZM111.835 18.95a73.835 73.835 0 0 1 2.109 17.516c0 5.877-.703 11.758-2.109 17.515 0 0-5.605.367-9.023 3.82-2.386 2.401-3.936 5.616-3.936 9.214a151.386 151.386 0 0 0 6.277 35.671l-16.364.725.967-101.128L122.989.022l.37 14.87h-15.122l-.439 4.058h4.037ZM37.987 0v22.877H34.39l-.439-4.057h-3.598l-.44-4.058h-3.597l-.44 4.058h-3.598l-.439 4.057H18.24l-.44 4.058h-3.158l-.44 4.058h3.599l-3.317 71.693L0 103.57 3.163 3.462 37.987 0Z" fill="currentColor"/><path d="m28.05 31.128-2.64 2.468v6.62h5.272v-6.62l-2.632-2.468ZM32.082 46.303h-8.074v4.058h8.074v-4.058ZM71.054 76.622a4.05 4.05 0 0 0-4.05 4.07 4.047 4.047 0 0 0 4.05 4.054 4.054 4.054 0 0 0 4.046-4.053c0-2.257-1.818-4.071-4.046-4.071ZM75.082 90.72h-8.074v4.057h8.074V90.72Z" fill="currentColor"/></symbol><symbol id="icon-logo-2" viewBox="0 0 193 101"><path d="M9.005 8.003 3.893.633H.938v16.753h2.79V4.89l4.996 7.277h.562l5.019-7.324v12.542h2.79V.632h-2.978l-5.112 7.37ZM21.549 17.386h2.697l8.442-12.752v12.752h2.814V.632h-2.955L24.363 13.01V.632h-2.814v16.754ZM39.961.632v16.754h2.814v-7.277h7.715v7.277h2.814V.632H50.49v6.88h-7.715V.632h-2.814ZM57.732 17.386h2.697L68.87 4.634v12.752h2.814V.632H68.73L60.546 13.01V.632h-2.814v16.754ZM83.297 17.643c1.876 0 3.588-.515 4.924-1.52v-3.206c-1.454 1.357-3.072 2.035-4.83 2.035-3.237 0-5.37-2.34-5.37-5.943 0-3.65 2.133-5.943 5.37-5.943 1.758 0 3.4.678 4.83 2.035V1.896C86.885.89 85.173.375 83.321.375c-4.832 0-8.162 3.533-8.162 8.634 0 5.1 3.33 8.634 8.138 8.634ZM95.046 17.386h2.814V3.23h4.948V.632h-12.71V3.23h4.948v14.156ZM105.595.632v16.754h9.661v-2.574h-6.847v-4.703h5.347V7.605h-5.347V3.206h6.847V.632h-9.661ZM118.763.632v16.754h2.814V10.95h3.142c3.307 0 5.511-2.059 5.511-5.124 0-3.112-2.228-5.195-5.511-5.195h-5.956Zm2.814 7.745v-5.17h2.861c1.876 0 2.931.935 2.931 2.596 0 1.662-1.032 2.574-2.931 2.574h-2.861ZM140.388 17.643c1.876 0 3.588-.515 4.925-1.52v-3.206c-1.454 1.357-3.072 2.035-4.831 2.035-3.236 0-5.37-2.34-5.37-5.943 0-3.65 2.134-5.943 5.37-5.943 1.759 0 3.401.678 4.831 2.035V1.896C143.976.89 142.264.375 140.412.375c-4.831 0-8.161 3.533-8.161 8.634 0 5.1 3.33 8.634 8.137 8.634ZM152.137 17.386h2.815V3.23h4.948V.632h-12.711V3.23h4.948v14.156ZM171.738 8.798c1.267-.819 1.994-2.035 1.994-3.556 0-2.644-2.158-4.61-5.042-4.61h-6.004v16.754h6.449c2.885 0 5.042-2.036 5.042-4.774 0-1.731-.867-3.065-2.439-3.814Zm-.797-3.252c0 1.357-.915 2.153-2.509 2.153h-2.978V3.136h2.978c1.524 0 2.509.96 2.509 2.41Zm-5.487 9.336v-4.843h3.423c1.548 0 2.51.936 2.51 2.433 0 1.45-.985 2.41-2.51 2.41h-3.423ZM184.652 17.643c4.69 0 7.973-3.533 7.973-8.634 0-5.1-3.283-8.634-7.973-8.634-4.69 0-7.973 3.533-7.973 8.634 0 5.1 3.283 8.634 7.973 8.634Zm0-2.69c-3.119 0-5.112-2.317-5.112-5.944 0-3.65 1.993-5.943 5.112-5.943 3.119 0 5.112 2.293 5.112 5.943 0 3.627-1.993 5.943-5.112 5.943ZM10.271 28.418l-6.519 7.417v-7.417H.938v16.753h2.814v-7.534l6.637 7.534h3.752l-7.598-8.493 7.363-8.26h-3.635ZM20.685 40.421l-2.227 4.75h3.048l7.856-16.753h-3.049l-4.103 9.055-4.456-9.055h-3.119l6.05 12.003ZM32.094 37.707c-.117 3.604-.75 4.937-2.369 4.937a3.47 3.47 0 0 1-.82-.117v2.644c.445.117.844.14 1.242.14 3.026 0 4.48-2.362 4.644-7.557l.21-6.739H41.1v14.156h2.814V28.418H32.399l-.305 9.29ZM51.18 34.385v-5.967h-2.814v16.753h5.721c3.471 0 5.746-2.129 5.746-5.428 0-3.253-2.251-5.358-5.745-5.358H51.18Zm0 8.212v-5.639h2.626c2.064 0 3.166.96 3.166 2.808 0 1.849-1.102 2.831-3.166 2.831H51.18ZM64.336 45.171h2.814V31.015h4.948v-2.597h-12.71v2.597h4.948v14.156ZM79.082 40.421l-2.227 4.75h3.048l7.856-16.753H84.71l-4.103 9.055-4.456-9.055h-3.119l6.05 12.003ZM90.114 28.418v16.753h2.814v-6.434h3.142c3.307 0 5.511-2.06 5.511-5.125 0-3.112-2.228-5.194-5.51-5.194h-5.957Zm2.814 7.745v-5.171h2.86c1.877 0 2.932.936 2.932 2.597s-1.032 2.574-2.931 2.574h-2.861ZM107.401 34.385v-5.967h-2.814v16.753h5.722c3.471 0 5.745-2.129 5.745-5.428 0-3.253-2.251-5.358-5.745-5.358h-2.908Zm10.905 10.786h2.814V28.418h-2.814v16.753Zm-10.905-2.574v-5.639h2.627c2.063 0 3.165.96 3.165 2.808 0 1.849-1.102 2.831-3.165 2.831h-2.627ZM8.606 63.761c-.774.375-1.805.585-2.954.585-2.064 0-2.838-.702-2.838-2.48v-5.662H0v5.873c0 3.065 1.97 4.89 5.276 4.89 1.173 0 2.416-.21 3.33-.562v6.552h2.838V56.204H8.606v7.557ZM15.892 56.204v16.753h9.662v-2.574h-6.848V65.68h5.347v-2.504h-5.347v-4.398h6.848v-2.574h-9.662ZM36.728 63.761c-.773.375-1.805.585-2.954.585-2.064 0-2.838-.702-2.838-2.48v-5.662h-2.814v5.873c0 3.065 1.97 4.89 5.277 4.89 1.172 0 2.415-.21 3.33-.562v6.552h2.837V56.204h-2.838v7.557ZM44.014 56.204v16.753h9.662v-2.574h-6.848V65.68h5.347v-2.504H46.83v-4.398h6.847v-2.574h-9.662ZM57.182 56.204v16.753h2.814V65.68h7.716v7.277h2.814V56.204h-2.814v6.879h-7.716v-6.88h-2.814ZM82.106 73.214c1.876 0 3.588-.514 4.924-1.52v-3.206c-1.454 1.357-3.072 2.035-4.83 2.035-3.237 0-5.37-2.34-5.37-5.943 0-3.65 2.133-5.943 5.37-5.943 1.758 0 3.4.679 4.83 2.036v-3.206c-1.336-1.006-3.048-1.52-4.9-1.52-4.831 0-8.161 3.532-8.161 8.633 0 5.101 3.33 8.634 8.137 8.634ZM99.905 56.204l-6.52 7.417v-7.417h-2.813v16.753h2.814v-7.534l6.636 7.534h3.752l-7.597-8.494 7.363-8.26h-3.635ZM112.01 73.214c4.691 0 7.974-3.533 7.974-8.634 0-5.1-3.283-8.634-7.974-8.634-4.69 0-7.973 3.534-7.973 8.634 0 5.101 3.283 8.634 7.973 8.634Zm0-2.69c-3.118 0-5.112-2.317-5.112-5.944 0-3.65 1.994-5.943 5.112-5.943 3.119 0 5.113 2.293 5.113 5.943 0 3.627-1.994 5.944-5.113 5.944ZM130.446 54.59c2.485 0 4.08-1.475 4.315-3.885h-2.416c-.141 1.24-.774 1.825-1.899 1.825-1.22 0-1.853-.585-1.994-1.825h-2.392c.235 2.41 1.853 3.884 4.386 3.884Zm-4.175 1.614h-2.814v16.753h2.697l8.442-12.752v12.752h2.814V56.204h-2.954l-8.185 12.378V56.204ZM.938 83.99v16.753h2.814v-6.435h3.142c3.307 0 5.511-2.059 5.511-5.124 0-3.112-2.227-5.195-5.51-5.195H.937Zm2.814 7.744v-5.17h2.861c1.876 0 2.931.935 2.931 2.596 0 1.662-1.031 2.574-2.931 2.574h-2.86ZM15.411 83.99v16.753h9.662v-2.574h-6.848v-4.703h5.347v-2.504h-5.347v-4.399h6.848V83.99H15.41ZM35.32 101c1.876 0 3.587-.515 4.924-1.52v-3.207c-1.454 1.358-3.072 2.036-4.83 2.036-3.237 0-5.37-2.34-5.37-5.943 0-3.65 2.133-5.943 5.37-5.943 1.758 0 3.4.678 4.83 2.035v-3.205c-1.337-1.006-3.048-1.521-4.901-1.521-4.83 0-8.16 3.533-8.16 8.634 0 5.1 3.33 8.634 8.136 8.634ZM46.6 100.743V86.587h7.433v14.156h2.814V83.989H43.785v16.754H46.6ZM65.48 95.993l-2.229 4.75h3.05l7.855-16.754h-3.049l-4.103 9.055-4.456-9.055h-3.119l6.05 12.004ZM79.325 90.939v-4.376h7.27V83.99H76.51v16.754h5.839c3.166 0 5.37-2.036 5.37-4.938 0-2.854-2.18-4.866-5.253-4.866h-3.142Zm0 7.253v-4.82h2.79c1.665 0 2.744.936 2.744 2.41 0 1.498-1.055 2.41-2.744 2.41h-2.79ZM92.392 93.278c-.118 3.604-.75 4.938-2.369 4.938-.258 0-.54-.047-.82-.117v2.644c.445.117.844.14 1.242.14 3.025 0 4.48-2.363 4.643-7.558l.212-6.739h6.097v14.157h2.814V83.989H92.697l-.305 9.29ZM108.663 100.743h2.697l8.442-12.752v12.752h2.814V83.989h-2.954l-8.184 12.378V83.99h-2.815v16.754ZM136.409 83.99l-6.519 7.417v-7.418h-2.814v16.754h2.814v-7.535l6.636 7.535h3.752l-7.598-8.494 7.364-8.26h-3.635ZM142.625 100.743h2.697l8.442-12.752v12.752h2.814V83.989h-2.954l-8.185 12.378V83.99h-2.814v16.754Z" fill="currentColor"/></symbol><symbol id="icon-mail" viewBox="0 0 24 24"><path d="M21 4.5H3a.75.75 0 0 0-.75.75V18a1.5 1.5 0 0 0 1.5 1.5h16.5a1.5 1.5 0 0 0 1.5-1.5V5.25A.75.75 0 0 0 21 4.5Zm-9 7.983L4.928 6h14.144L12 12.483ZM9.254 12 3.75 17.045V6.955L9.254 12Zm1.11 1.017 1.125 1.036a.75.75 0 0 0 1.014 0l1.125-1.036L19.066 18H4.928l5.436-4.983ZM14.746 12l5.504-5.046v10.092L14.746 12Z" fill="currentColor"/></symbol><symbol id="icon-ok" viewBox="0 0 24 24"><path d="M17.83 12.74c-.28-.57-1.07-1.05-2.12-.24-1.43 1.14-3.71 1.14-3.71 1.14s-2.28 0-3.71-1.14c-1.05-.81-1.84-.33-2.12.24-.5 1 .06 1.49 1.33 2.3 1.09.7 2.58.96 3.54 1.06l-.8.8C9.1 18.03 8 19.12 7.25 19.88c-.45.46-.45 1.19 0 1.62l.14.16c.45.45 1.19.45 1.64 0L12 18.68c1.15 1.13 2.24 2.22 3 2.98.45.45 1.18.45 1.64 0l.13-.16c.46-.43.46-1.16 0-1.62l-2.98-2.98-.79-.81c.95-.09 2.42-.36 3.5-1.05 1.27-.81 1.83-1.3 1.33-2.3ZM12 4.57c1.38 0 2.5 1.12 2.5 2.49 0 1.38-1.12 2.49-2.5 2.49S9.5 8.44 9.5 7.06c0-1.37 1.12-2.49 2.5-2.49Zm0 7.55c2.8 0 5.06-2.26 5.06-5.06a5.06 5.06 0 1 0-10.12 0c0 2.8 2.26 5.06 5.06 5.06Z" fill="currentColor"/></symbol><symbol id="icon-phone" viewBox="0 0 24 24"><path d="m20.847 14.855-4.416-1.979-.013-.005a1.5 1.5 0 0 0-1.492.184L12.644 15c-1.446-.702-2.938-2.184-3.64-3.61l1.948-2.317a1.5 1.5 0 0 0 .177-1.484v-.011L9.144 3.154a1.5 1.5 0 0 0-1.558-.893A5.274 5.274 0 0 0 3 7.5C3 14.944 9.056 21 16.5 21a5.274 5.274 0 0 0 5.239-4.586 1.5 1.5 0 0 0-.892-1.559ZM16.5 19.5a12.014 12.014 0 0 1-12-12 3.769 3.769 0 0 1 3.27-3.75v.011l1.968 4.406-1.938 2.32a.574.574 0 0 0-.053.072 1.5 1.5 0 0 0-.094 1.472c.85 1.737 2.6 3.474 4.355 4.323a1.5 1.5 0 0 0 1.477-.107.804.804 0 0 0 .07-.053l2.278-1.944 4.407 1.973h.01A3.77 3.77 0 0 1 16.5 19.5Z" fill="currentColor"/></symbol><symbol id="icon-pin" viewBox="0 0 24 24"><path d="M12 6a3.75 3.75 0 1 0 0 7.5A3.75 3.75 0 0 0 12 6Zm0 6a2.25 2.25 0 1 1 0-4.5 2.25 2.25 0 0 1 0 4.5Zm0-10.5a8.26 8.26 0 0 0-8.25 8.25c0 2.944 1.36 6.064 3.938 9.023a23.837 23.837 0 0 0 3.885 3.591.75.75 0 0 0 .861 0 23.835 23.835 0 0 0 3.879-3.59c2.573-2.96 3.937-6.08 3.937-9.024A8.26 8.26 0 0 0 12 1.5Zm0 19.313c-1.55-1.22-6.75-5.696-6.75-11.063a6.75 6.75 0 0 1 13.5 0c0 5.365-5.2 9.844-6.75 11.063Z" fill="currentColor"/></symbol><symbol id="icon-play" viewBox="0 0 48 47"><path d="M16 38V10l22 14-22 14Z" fill="currentColor"/></symbol><symbol id="icon-shape-2" viewBox="0 0 323 78"><path stroke="currentColor" d="M236 58.3zm.1 0zM161.7 74.7c-.2 0-4.6-3-5.7-3.6-2.2-1.3-5.1-3-8.7-4.9-7.2-3.9-16.9-8.9-28.5-14.5-17.2-8.4-26.2-12.8-31.8-15-2.8-1.1-4.7-1.7-6.4-1.9-1.7-.3-3.1-.2-4.8-.1-4.5.3-8.2 1.8-11 4.3-2.8 2.5-4.5 5.9-4.9 10.1-.9 9.3 6 16.5 15.9 16.5 5.5 0 9.4-2.2 10.9-6.4.1-.3.2-.5.3-.6.1.1.1.2.2.4.4.9.7 2.8.6 5.2 0 2.7-.6 4.9-1.6 6.8-1 1.9-2.6 3.5-4.9 4.9-2.4 1.5-6 2-9.8 1.8-3.8-.3-7.6-1.5-10.3-3.3-6.1-4.4-9.9-11.8-10.4-20.5-.2-3.3-.2-5.1.1-6.6.3-1.5 1-2.7 2.3-4.9 1.7-2.5 5.6-6.4 8.9-8.8 2.5-1.8 4.1-3 4.8-3.8.4-.4.6-.9.6-1.4 0-.5-.3-.9-.6-1.2-.3-.3-.8-.6-1.5-1s-1.5-.8-2.5-1.3c-2-1-4.5-2.1-7.1-3.2-5.2-2.2-10.9-4.4-13.8-5.1-10.5-2.4-23.1 2-28.8 10.2-1.2 1.7-2 3.2-2.5 4.8-.5 1.7-.8 3.5-.9 6-.1 1.8-.1 3.8 0 5.6.1 1.8.4 3.4.7 4.4.8 2.6 2.8 5.3 5.5 7.7 2.6 2.4 6 4.5 9.5 6 1.2.5 2.2.9 2.9 1.2.7.3 1.2.6 1.4.8h.1c-.1.1-.2.1-.4.2-.5.2-1.7.4-3.2.5-1.5.1-3.4.2-5.2.2-5.5 0-9.6-1.4-12.7-4.3-3.1-3-5.3-7.6-6.6-14.2-2.3-11.1.4-20.8 6.6-27.8 6.3-7 16.2-11.2 28.7-11.2 7.8 0 18.2 3.5 39.8 13.2 1.5.7 3 1.3 4.3 1.9 3 1.3 5.3 2.4 7.2 3.2 2.7 1.2 4.5 1.9 5.6 2.2.5.1 1 .2 1.4.1.2 0 .4-.1.5-.3.1-.2.2-.4.2-.5 0-.3 0-.7-.1-1.1-.1-.2-.1-.4-.2-.7-.1-.2-.1-.4-.2-.6-1.1-3.9-.1-8.8 2.3-13.2 2.4-4.3 6-8 10-9.3 3.9-1.3 8.5-.8 12.5.8s7.4 4.4 8.7 7.7c1.5 3.6.7 8.7-2 12.3-.2.3-.4.6-.6.8v-.7c0-.8-.4-1.8-1.1-2.9-.6-1.1-1.5-2.2-2.5-3.2-1.4-1.4-2.5-2.3-3.6-2.8-1.2-.6-2.5-.7-4.1-.7-3.1 0-5.5.8-7.2 2.3-1.7 1.6-2.5 3.9-2.5 6.8 0 5.7 2.1 9.8 6.4 13.1.8.6 3.5 2.2 7 4.1 3.5 2 7.9 4.4 12.3 6.7 4.3 2.3 8.6 4.6 11.9 6.2 1.6.8 3 1.5 4.1 2 .5.2.9.4 1.3.6.2.1.3.1.4.2.1 0 .2.1.4.1.3 0 .4-.2.5-.2.1-.1.2-.2.2-.3.1-.2.2-.5.4-.9.2-.7.5-1.7.7-2.8.4-2.3 1.6-5.3 3.1-8.2 1.6-2.9 3.4-5.6 5.2-7.3l2.4-2.3 2.4 2.3c1.7 1.7 3.6 4.4 5.2 7.3 1.6 2.9 2.8 5.9 3.1 8.2.2 1.1.5 2 .7 2.8.1.4.2.7.4.9.1.1.1.2.2.3.1.1.2.2.5.2.1 0 .3 0 .4-.1.1 0 .3-.1.4-.2.3-.1.7-.3 1.3-.6 1-.5 2.4-1.2 4.1-2 3.3-1.7 7.6-3.9 11.9-6.2 4.3-2.3 8.8-4.7 12.3-6.7s6.2-3.5 7-4.1c4.3-3.3 6.4-7.5 6.4-13.1 0-2.9-.8-5.2-2.5-6.8-1.7-1.6-4.1-2.3-7.2-2.3-1.6 0-2.9.2-4.1.7-1.2.6-2.3 1.5-3.6 2.8-1 1-1.8 2.1-2.5 3.2-.6 1-1.1 2.1-1.1 2.9v.7c-.2-.2-.4-.4-.6-.8-2.7-3.6-3.5-8.7-2-12.3 1.4-3.3 4.7-6 8.7-7.7 4-1.6 8.6-2 12.5-.8 4 1.3 7.6 5 10 9.3 2.4 4.4 3.4 9.3 2.3 13.2-.1.2-.1.4-.2.6-.1.3-.1.5-.2.7-.1.4-.2.8-.1 1.1 0 .2.1.4.2.5.1.2.3.3.5.3.4.1.8 0 1.4-.1 1.1-.3 2.8-1 5.6-2.2 1.9-.8 4.2-1.9 7.2-3.2 1.3-.6 2.7-1.2 4.3-1.9 21.6-9.7 32-13.2 39.8-13.2 12.5.1 22.4 4.3 28.7 11.2 6.3 7 8.9 16.7 6.6 27.8-1.4 6.6-3.5 11.2-6.6 14.2-3.1 3-7.2 4.3-12.7 4.3-1.8 0-3.6-.1-5.2-.2s-2.7-.3-3.2-.5c-.2-.1-.3-.1-.4-.2h.1c.2-.2.7-.4 1.4-.8.7-.3 1.6-.7 2.9-1.2 3.5-1.4 6.8-3.6 9.5-6 2.6-2.4 4.7-5.1 5.5-7.7.3-1 .5-2.6.7-4.4.1-1.8.2-3.8 0-5.6-.2-2.5-.4-4.4-.9-6-.5-1.7-1.3-3.1-2.5-4.8-5.7-8.2-18.3-12.7-28.8-10.2-2.9.7-8.6 2.8-13.8 5.1-2.6 1.1-5.1 2.3-7.1 3.2-1 .5-1.8.9-2.5 1.3s-1.2.7-1.5 1c-.3.3-.6.7-.6 1.2s.2.9.6 1.4c.7.9 2.3 2 4.8 3.8 3.4 2.4 7.3 6.2 8.9 8.8 1.3 2.2 2 3.4 2.3 4.9.3 1.5.3 3.3.1 6.6-.5 8.8-4.2 16.1-10.4 20.5-2.7 1.9-6.5 3-10.3 3.3-3.8.3-7.5-.3-9.8-1.8-2.2-1.4-3.8-3-4.9-4.9-1-1.9-1.5-4.1-1.6-6.8 0-2.4.3-4.2.6-5.2.1-.2.2-.3.2-.4.1.1.2.3.3.6 1.5 4.3 5.4 6.4 10.9 6.4 9.8 0 16.8-7.1 15.9-16.5-.5-4.1-2.2-7.6-4.9-10.1-2.8-2.5-6.5-4-11-4.3-1.7-.1-3.2-.2-4.8.1-1.7.3-3.6.8-6.4 1.9-5.5 2.2-14.5 6.6-31.8 15-11.5 5.6-21.3 10.6-28.5 14.5-3.6 1.9-6.5 3.6-8.7 4.9-1.3.6-5.7 3.5-5.9 3.6zM87.1 58.3zm-.1 0z"/></symbol><symbol id="icon-shape-3" viewBox="0 0 664 81"><mask id="shape-3-a" fill="#fff"><path d="M90.513 1.003c-8.41 2.715-15.319 12.875-17.422 25.448l-.7 4.325-2.704-4.325c-3.204-5.03-11.014-12.272-16.12-14.887-9.712-5.03-23.83-6.437-33.742-3.52-7.009 2.112-13.317 7.946-16.921 15.792C.6 29.066.1 31.58 0 38.219c0 7.142.4 8.852 3.304 14.887 4.406 8.852 8.711 12.272 15.62 12.272 3.204-.1 6.308-.805 8.31-2.012l3.304-1.911-4.606-1.81C9.312 53.407 3.905 39.627 12.616 26.25c7.91-11.97 23.63-13.177 37.447-2.817l5.006 3.722-5.507.604c-9.912 1.106-14.919 4.526-17.021 11.869-1.302 4.627.4 8.449 4.906 10.964 4.806 2.715 5.507 2.715 4.105.1-2.904-5.431 3.304-13.076 10.914-13.177 8.61-.1 19.023 8.148 35.945 28.567l7.309 8.75L103.93 69c28.836-20.52 35.044-23.336 44.155-19.816 7.309 2.817 9.913 10.461 5.407 16.195-2.002 2.514-2.503 2.716-8.01 2.313-4.406-.302-5.807-.1-5.807.906 0 2.414 4.605 6.135 8.911 7.342 6.108 1.61 11.014.302 15.419-4.023 3.505-3.52 3.705-4.124 3.705-9.958 0-11.266-5.607-17.603-17.823-20.218-2.803-.704-5.206-1.308-5.206-1.509 0-.805 25.932-22.632 26.934-22.632.901 0 45.156 34.904 69.687 54.92l4.105 3.32 15.72-10.461c21.326-14.082 24.53-15.591 32.64-15.591 10.514 0 15.019 4.124 15.119 13.68 0 4.124-.5 5.532-2.403 7.342-2.102 1.912-3.304 2.213-8.01 1.912-3.103-.101-5.607.1-5.607.502 0 2.012 2.303 4.829 5.007 6.237 7.209 3.722 15.719.503 19.824-7.544C319.7 68.094 320 66.283 319.6 60.55c-.701-10.663-5.407-15.29-17.622-17.301l-6.308-1.107 18.223-12.372 18.222-12.372 17.522 11.87c9.612 6.638 17.723 12.27 17.923 12.673.2.302-2.203.905-5.407 1.308-12.315 1.408-17.722 7.343-17.722 19.111 0 11.165 4.906 17.502 14.218 18.307 3.905.402 5.507 0 8.21-1.911 1.902-1.207 3.705-3.22 4.105-4.426.801-1.911.501-2.012-5.006-1.61-5.307.403-6.108.202-8.511-2.313-2.503-2.414-2.703-3.219-2.303-8.147.401-4.527 1.002-6.136 3.605-8.751 2.903-2.917 3.905-3.22 10.413-3.521 6.708-.402 7.81-.1 13.917 3.018 3.605 1.91 13.117 7.845 21.127 13.076l14.518 9.656 36.846-29.472 36.846-29.471 12.015 10.159c6.508 5.633 12.816 10.964 14.018 11.869 2.002 1.61 1.902 1.71-2.403 2.414-12.917 2.112-19.925 9.254-19.925 20.319 0 10.561 8.711 17.2 18.823 14.484 4.706-1.308 8.811-4.325 9.512-7.041.401-1.71 0-1.81-5.807-1.308-6.008.403-6.408.302-8.11-2.313-1.102-1.71-1.803-4.527-1.803-6.74.201-7.242 7.31-11.668 16.221-10.36 6.207.905 7.91 1.911 26.533 14.786 8.611 5.935 16.12 10.964 16.621 11.165.4.1 5.707-5.632 11.714-12.774 15.42-18.508 22.529-23.738 32.04-23.738 3.905 0 5.107.502 8.01 3.42 3.505 3.52 4.206 6.336 2.403 9.756-1.401 2.515.301 2.515 4.506-.1 4.606-2.817 6.208-7.041 4.506-12.07-.701-2.213-2.303-4.829-3.405-5.935-2.703-2.615-9.812-5.13-14.217-5.13-4.105 0-4.306-1.006-.601-3.722 7.91-5.834 18.123-8.55 26.433-6.94 8.11 1.509 15.82 12.17 15.82 21.726 0 9.355-5.807 16.597-16.621 20.721-5.307 2.012-4.706 3.52 2.203 5.432 8.51 2.414 15.82-2.112 20.826-12.976 3.204-7.142 3.004-20.821-.501-28.265-5.407-11.366-12.916-16.194-25.932-16.898-17.923-.905-33.142 6.74-41.352 20.821l-2.103 3.42-1.301-6.337c-1.802-9.153-5.807-16.697-10.513-20.117-10.614-7.745-27.134-5.13-32.341 5.13-3.404 6.538-.701 15.39 5.407 18.005 3.705 1.509 4.706.905 3.204-1.81-1.902-3.622-1.302-9.154 1.302-11.77 4.906-4.928 10.413-4.526 16.62 1.107 8.411 7.645 11.214 19.112 6.809 27.46-3.004 5.532-12.916 17.2-14.719 17.2-.801 0-3.204-1.508-5.506-3.319-30.539-25.146-69.087-54.92-70.088-54.216-.601.503-7.81 6.136-15.92 12.674-17.021 13.58-22.728 16.898-30.238 17.502-12.315 1.006-20.926-10.46-14.017-18.709 3.003-3.52 7.609-5.633 11.013-5.03 3.505.705 3.104-.301-1.201-3.218-7.309-5.03-16.721-2.112-22.428 6.94-3.805 5.935-3.905 11.467-.301 16.798 4.306 6.337 10.313 9.958 18.323 11.266l4.907.704-11.515 10.562c-6.408 5.834-12.115 10.662-12.716 10.762-.601.202-19.724-12.875-42.553-28.868-22.829-16.094-42.053-29.07-42.553-28.868-.601.302-19.525 13.378-42.053 29.27-22.528 15.792-41.352 28.768-41.752 28.768-.401 0-6.008-4.828-12.516-10.763L223.48 41.338l5.506-1.107c19.325-3.822 26.434-21.022 13.417-32.49-7.009-6.236-15.219-6.437-20.726-.603-1.702 1.81-1.902 2.314-.6 1.81 3.003-1.106 8.51.604 11.714 3.723 7.71 7.845.301 20.016-12.215 20.016-6.809 0-14.819-4.627-32.24-18.508l-15.82-12.674-2.704 1.912a8008.53 8008.53 0 0 0-37.146 29.673L98.123 60.85l-6.308-6.739C81.202 42.545 78.598 34.7 82.603 25.847 87.11 15.79 94.118 9.854 100.326 10.86c5.406.905 8.31 4.225 8.31 9.455 0 2.515-.501 5.331-1.001 6.438-1.302 2.414-.1 2.514 4.005.402 4.305-2.213 6.007-5.331 6.007-10.964 0-6.136-2.803-11.064-7.91-13.58C104.531-.103 96.12-.807 90.513 1.004Z"/></mask><path d="M90.513 1.003c-8.41 2.715-15.319 12.875-17.422 25.448l-.7 4.325-2.704-4.325c-3.204-5.03-11.014-12.272-16.12-14.887-9.712-5.03-23.83-6.437-33.742-3.52-7.009 2.112-13.317 7.946-16.921 15.792C.6 29.066.1 31.58 0 38.219c0 7.142.4 8.852 3.304 14.887 4.406 8.852 8.711 12.272 15.62 12.272 3.204-.1 6.308-.805 8.31-2.012l3.304-1.911-4.606-1.81C9.312 53.407 3.905 39.627 12.616 26.25c7.91-11.97 23.63-13.177 37.447-2.817l5.006 3.722-5.507.604c-9.912 1.106-14.919 4.526-17.021 11.869-1.302 4.627.4 8.449 4.906 10.964 4.806 2.715 5.507 2.715 4.105.1-2.904-5.431 3.304-13.076 10.914-13.177 8.61-.1 19.023 8.148 35.945 28.567l7.309 8.75L103.93 69c28.836-20.52 35.044-23.336 44.155-19.816 7.309 2.817 9.913 10.461 5.407 16.195-2.002 2.514-2.503 2.716-8.01 2.313-4.406-.302-5.807-.1-5.807.906 0 2.414 4.605 6.135 8.911 7.342 6.108 1.61 11.014.302 15.419-4.023 3.505-3.52 3.705-4.124 3.705-9.958 0-11.266-5.607-17.603-17.823-20.218-2.803-.704-5.206-1.308-5.206-1.509 0-.805 25.932-22.632 26.934-22.632.901 0 45.156 34.904 69.687 54.92l4.105 3.32 15.72-10.461c21.326-14.082 24.53-15.591 32.64-15.591 10.514 0 15.019 4.124 15.119 13.68 0 4.124-.5 5.532-2.403 7.342-2.102 1.912-3.304 2.213-8.01 1.912-3.103-.101-5.607.1-5.607.502 0 2.012 2.303 4.829 5.007 6.237 7.209 3.722 15.719.503 19.824-7.544C319.7 68.094 320 66.283 319.6 60.55c-.701-10.663-5.407-15.29-17.622-17.301l-6.308-1.107 18.223-12.372 18.222-12.372 17.522 11.87c9.612 6.638 17.723 12.27 17.923 12.673.2.302-2.203.905-5.407 1.308-12.315 1.408-17.722 7.343-17.722 19.111 0 11.165 4.906 17.502 14.218 18.307 3.905.402 5.507 0 8.21-1.911 1.902-1.207 3.705-3.22 4.105-4.426.801-1.911.501-2.012-5.006-1.61-5.307.403-6.108.202-8.511-2.313-2.503-2.414-2.703-3.219-2.303-8.147.401-4.527 1.002-6.136 3.605-8.751 2.903-2.917 3.905-3.22 10.413-3.521 6.708-.402 7.81-.1 13.917 3.018 3.605 1.91 13.117 7.845 21.127 13.076l14.518 9.656 36.846-29.472 36.846-29.471 12.015 10.159c6.508 5.633 12.816 10.964 14.018 11.869 2.002 1.61 1.902 1.71-2.403 2.414-12.917 2.112-19.925 9.254-19.925 20.319 0 10.561 8.711 17.2 18.823 14.484 4.706-1.308 8.811-4.325 9.512-7.041.401-1.71 0-1.81-5.807-1.308-6.008.403-6.408.302-8.11-2.313-1.102-1.71-1.803-4.527-1.803-6.74.201-7.242 7.31-11.668 16.221-10.36 6.207.905 7.91 1.911 26.533 14.786 8.611 5.935 16.12 10.964 16.621 11.165.4.1 5.707-5.632 11.714-12.774 15.42-18.508 22.529-23.738 32.04-23.738 3.905 0 5.107.502 8.01 3.42 3.505 3.52 4.206 6.336 2.403 9.756-1.401 2.515.301 2.515 4.506-.1 4.606-2.817 6.208-7.041 4.506-12.07-.701-2.213-2.303-4.829-3.405-5.935-2.703-2.615-9.812-5.13-14.217-5.13-4.105 0-4.306-1.006-.601-3.722 7.91-5.834 18.123-8.55 26.433-6.94 8.11 1.509 15.82 12.17 15.82 21.726 0 9.355-5.807 16.597-16.621 20.721-5.307 2.012-4.706 3.52 2.203 5.432 8.51 2.414 15.82-2.112 20.826-12.976 3.204-7.142 3.004-20.821-.501-28.265-5.407-11.366-12.916-16.194-25.932-16.898-17.923-.905-33.142 6.74-41.352 20.821l-2.103 3.42-1.301-6.337c-1.802-9.153-5.807-16.697-10.513-20.117-10.614-7.745-27.134-5.13-32.341 5.13-3.404 6.538-.701 15.39 5.407 18.005 3.705 1.509 4.706.905 3.204-1.81-1.902-3.622-1.302-9.154 1.302-11.77 4.906-4.928 10.413-4.526 16.62 1.107 8.411 7.645 11.214 19.112 6.809 27.46-3.004 5.532-12.916 17.2-14.719 17.2-.801 0-3.204-1.508-5.506-3.319-30.539-25.146-69.087-54.92-70.088-54.216-.601.503-7.81 6.136-15.92 12.674-17.021 13.58-22.728 16.898-30.238 17.502-12.315 1.006-20.926-10.46-14.017-18.709 3.003-3.52 7.609-5.633 11.013-5.03 3.505.705 3.104-.301-1.201-3.218-7.309-5.03-16.721-2.112-22.428 6.94-3.805 5.935-3.905 11.467-.301 16.798 4.306 6.337 10.313 9.958 18.323 11.266l4.907.704-11.515 10.562c-6.408 5.834-12.115 10.662-12.716 10.762-.601.202-19.724-12.875-42.553-28.868-22.829-16.094-42.053-29.07-42.553-28.868-.601.302-19.525 13.378-42.053 29.27-22.528 15.792-41.352 28.768-41.752 28.768-.401 0-6.008-4.828-12.516-10.763L223.48 41.338l5.506-1.107c19.325-3.822 26.434-21.022 13.417-32.49-7.009-6.236-15.219-6.437-20.726-.603-1.702 1.81-1.902 2.314-.6 1.81 3.003-1.106 8.51.604 11.714 3.723 7.71 7.845.301 20.016-12.215 20.016-6.809 0-14.819-4.627-32.24-18.508l-15.82-12.674-2.704 1.912a8008.53 8008.53 0 0 0-37.146 29.673L98.123 60.85l-6.308-6.739C81.202 42.545 78.598 34.7 82.603 25.847 87.11 15.79 94.118 9.854 100.326 10.86c5.406.905 8.31 4.225 8.31 9.455 0 2.515-.501 5.331-1.001 6.438-1.302 2.414-.1 2.514 4.005.402 4.305-2.213 6.007-5.331 6.007-10.964 0-6.136-2.803-11.064-7.91-13.58C104.531-.103 96.12-.807 90.513 1.004Z" stroke="#C5BEB1" stroke-width="2" mask="url(#shape-3-a)"/></symbol><symbol id="icon-shape" viewBox="0 0 188 188"><path d="M138.179 44.438c-3.791-2.725-8.012-4.406-12.326-4.888-.707-.072-3.473-.154-6.137-.175l-4.837-.02-.881-1.64c-1.312-2.418-2.347-4.088-3.679-5.974-2.162-3.023-3.146-4.17-6.373-7.377-3.331-3.33-4.858-4.612-8.167-6.897l-1.763-1.209-1.352.902c-3.34 2.233-4.98 3.606-8.586 7.192-3.452 3.452-4.2 4.303-6.341 7.284-1.373 1.906-2.47 3.678-3.678 5.932l-.953 1.773-4.816.04c-2.653.01-5.389.082-6.106.164-3.812.43-7.818 1.895-11.25 4.118-1.578 1.024-4.856 4.077-6.055 5.624-1.885 2.46-3.022 4.54-3.995 7.275-1.23 3.504-1.465 5.297-1.516 11.824l-.04 4.733-1.27.656c-2.788 1.434-6.046 3.565-9.017 5.88-.789.605-2.418 2.152-4.682 4.437-3.678 3.698-4.692 4.897-7.09 8.421l-.973 1.424.41.636c.768 1.178 2.982 4.19 4.099 5.553 1.64 2.029 5.974 6.302 8.044 7.942 3.094 2.459 6.27 4.55 9.273 6.097l1.209.635.041 4.386c.073 6.588.278 8.391 1.395 11.742 2.285 6.896 7.767 12.87 14.243 15.534 4.17 1.712 6.445 2.06 13.976 2.112l4.17.031.625 1.219c2.542 4.939 5.8 9.325 10.176 13.7 3.197 3.197 6.097 5.564 9.478 7.757l.584.38 1.363-.933c3.463-2.377 5.635-4.18 8.647-7.192 4.272-4.272 7.458-8.503 9.927-13.206l.902-1.742 3.996-.02c5.748-.03 6.854-.092 8.883-.501 3.432-.707 6.66-2.029 9.283-3.791 5.993-4.046 10.009-10.194 11.177-17.079.276-1.67.368-3.074.44-8.105l.071-4.313 1.281-.666c2.848-1.475 5.973-3.514 8.913-5.819 1.927-1.496 7.756-7.407 9.324-9.426 1.239-1.629 3.35-4.64 3.401-4.877.031-.071-.113-.338-.277-.584-.184-.245-.758-1.065-1.291-1.823-1.691-2.409-3.156-4.202-5.472-6.64-4.242-4.468-8.812-8.014-13.884-10.75l-2.009-1.086-.03-1.117c-.021-.615-.052-2.797-.083-4.856-.021-2.07-.103-4.324-.185-5.042-.441-3.883-1.947-7.95-4.222-11.373-1.179-1.752-4.376-5.113-5.995-6.282Z" fill="currentColor"/></symbol><symbol id="icon-terror" viewBox="0 0 50 48"><mask id="terror-a" maskUnits="userSpaceOnUse" x="0" y="0" width="50" height="47" fill="#000"><path fill="#fff" d="M0 0h50v47H0z"/><path d="M22.77 1.08c-1.168.275-1.985 1.286-1.985 2.44 0 .21.16.693.34 1.067.193.385.34.869.34 1.067 0 .802-.986 1.308-1.61.835-.158-.132-.487-.55-.713-.945-.386-.682-.68-.88-.806-.561-.079.209.703 1.55 1.089 1.869.476.385 1.032.45 1.644.187.998-.429 1.225-1.33.624-2.485-.533-1.022-.42-1.89.317-2.495 1.077-.869 2.426-.583 3.13.681.385.682.396.649-.749 1.22-.351.176-.725.43-.816.561-.227.319-.227.858 0 1.33l.181.363-.59.847c-.328.461-.736 1.198-.907 1.638l-.328.802-8.311.055c-9.173.066-8.663.022-9.547.77a4.102 4.102 0 0 0-.726.923l-.306.56v12.918c0 14.138-.045 13.313.692 14.237l.374.484-1.554.033L1 39.514l.023.692c.056 1.836 1.213 3.738 2.948 4.815.317.21.986.506 1.474.67l.884.309h18.538c20.205 0 19.06.033 20.477-.627 1.304-.615 2.472-1.759 3.073-3.023.318-.66.624-2.012.578-2.496l-.033-.34-1.554-.033-1.553-.033.374-.484c.737-.924.692-.1.692-14.237V11.81l-.307-.56a3.664 3.664 0 0 0-.782-.957c-.805-.67-1.18-.737-4.104-.737-2.517 0-2.597-.01-2.654-.22-.26-.978-1.462-2.814-2.37-3.628-1.711-1.55-3.628-2.297-6.043-2.374L29.37 3.3l-.227-.385c-.227-.374-.771-.725-1.145-.725-.09 0-.556.197-1.032.44-.476.241-.896.439-.941.439-.046 0-.204-.23-.363-.517-.397-.725-.964-1.22-1.621-1.407-.624-.176-.749-.187-1.27-.066Zm5.556 1.726c.272.11.544.67.374.78-.08.045-1.111.594-2.302 1.199-1.927 1-2.166 1.1-2.29.934-.238-.296-.182-.868.113-1.044.51-.33 3.651-1.924 3.787-1.935.068 0 .216.033.318.066Zm3.889 1.21c2.607.505 5.045 2.44 6.066 4.826.68 1.583.827 3.65.374 5.276-.975 3.507-4.343 5.992-8.107 5.992-1.451 0-2.45-.22-3.685-.813-2.324-1.11-3.866-2.98-4.501-5.453-.465-1.825-.114-4.277.827-5.838.84-1.374.715-1.297 5.817-3.88.465-.242.714-.286 1.451-.286.488 0 1.281.077 1.758.175ZM21.67 10.731c-.057.352-.09 1.1-.068 1.65l.045 1.022H14.55c-3.9 0-7.154.044-7.233.088-.114.077-.137 2.407-.114 11.301l.034 11.203 17.518.033c9.638.01 17.631 0 17.779-.033l.25-.055-.024-11.247-.034-11.235-1.644-.033-1.644-.022v-1.297c0-.704-.034-1.451-.08-1.65l-.078-.351h2.573c2.257 0 2.63.033 3.039.209.646.286 1.259 1.011 1.406 1.704.09.396.113 4.276.09 13.148l-.033 12.588-.284.483a3.615 3.615 0 0 1-.714.825l-.442.34-7.722.056-7.733.055-.034.956-.034.967h-8.82l-.035-.967-.034-.956-7.733-.055-7.721-.055-.442-.341a3.615 3.615 0 0 1-.715-.825l-.283-.483-.034-12.588c-.023-8.872 0-12.753.09-13.148.148-.693.76-1.418 1.406-1.704.443-.187.942-.21 8.584-.21h8.118l-.102.627Zm-5.454 3.409c-.034.142-5.374 12.818-8.368 19.876-.045.12-.09-4.343-.09-9.927l-.012-10.136h4.264c4.013 0 4.263.01 4.206.186Zm5.76.417c.646 2.166 2.472 4.233 4.649 5.233 1.236.572 2.052.77 3.47.836 2.71.132 5.09-.803 6.961-2.727.941-.978 1.53-1.913 1.939-3.089l.295-.857h1.417c1.304 0 1.417.01 1.35.186-.046.11-2.053 4.959-4.468 10.785l-4.377 10.576H20.525c-12.042 0-12.688-.011-12.609-.198.193-.506 8.935-21.195 8.98-21.272.023-.044 1.134-.077 2.472-.077h2.427l.181.604Zm20.24 10.884V35.5h-4.207c-3.323 0-4.196-.033-4.15-.143.918-2.265 8.3-19.975 8.322-19.975.023 0 .034 4.53.034 10.059Zm-22.11 15.556v.99h9.75v-1.98h9.298c8.05 0 9.297.022 9.297.165 0 .44-.294 1.407-.635 2.11-.714 1.452-2.154 2.584-3.832 3.002-.885.22-1.213.22-19.003.22s-18.119 0-19.003-.22c-1.679-.418-3.118-1.55-3.833-3.001-.34-.704-.635-1.671-.635-2.11 0-.144 1.247-.166 9.298-.166h9.297v.99Z"/></mask><path d="M22.77 1.08c-1.168.275-1.985 1.286-1.985 2.44 0 .21.16.693.34 1.067.193.385.34.869.34 1.067 0 .802-.986 1.308-1.61.835-.158-.132-.487-.55-.713-.945-.386-.682-.68-.88-.806-.561-.079.209.703 1.55 1.089 1.869.476.385 1.032.45 1.644.187.998-.429 1.225-1.33.624-2.485-.533-1.022-.42-1.89.317-2.495 1.077-.869 2.426-.583 3.13.681.385.682.396.649-.749 1.22-.351.176-.725.43-.816.561-.227.319-.227.858 0 1.33l.181.363-.59.847c-.328.461-.736 1.198-.907 1.638l-.328.802-8.311.055c-9.173.066-8.663.022-9.547.77a4.102 4.102 0 0 0-.726.923l-.306.56v12.918c0 14.138-.045 13.313.692 14.237l.374.484-1.554.033L1 39.514l.023.692c.056 1.836 1.213 3.738 2.948 4.815.317.21.986.506 1.474.67l.884.309h18.538c20.205 0 19.06.033 20.477-.627 1.304-.615 2.472-1.759 3.073-3.023.318-.66.624-2.012.578-2.496l-.033-.34-1.554-.033-1.553-.033.374-.484c.737-.924.692-.1.692-14.237V11.81l-.307-.56a3.664 3.664 0 0 0-.782-.957c-.805-.67-1.18-.737-4.104-.737-2.517 0-2.597-.01-2.654-.22-.26-.978-1.462-2.814-2.37-3.628-1.711-1.55-3.628-2.297-6.043-2.374L29.37 3.3l-.227-.385c-.227-.374-.771-.725-1.145-.725-.09 0-.556.197-1.032.44-.476.241-.896.439-.941.439-.046 0-.204-.23-.363-.517-.397-.725-.964-1.22-1.621-1.407-.624-.176-.749-.187-1.27-.066Zm5.556 1.726c.272.11.544.67.374.78-.08.045-1.111.594-2.302 1.199-1.927 1-2.166 1.1-2.29.934-.238-.296-.182-.868.113-1.044.51-.33 3.651-1.924 3.787-1.935.068 0 .216.033.318.066Zm3.889 1.21c2.607.505 5.045 2.44 6.066 4.826.68 1.583.827 3.65.374 5.276-.975 3.507-4.343 5.992-8.107 5.992-1.451 0-2.45-.22-3.685-.813-2.324-1.11-3.866-2.98-4.501-5.453-.465-1.825-.114-4.277.827-5.838.84-1.374.715-1.297 5.817-3.88.465-.242.714-.286 1.451-.286.488 0 1.281.077 1.758.175ZM21.67 10.731c-.057.352-.09 1.1-.068 1.65l.045 1.022H14.55c-3.9 0-7.154.044-7.233.088-.114.077-.137 2.407-.114 11.301l.034 11.203 17.518.033c9.638.01 17.631 0 17.779-.033l.25-.055-.024-11.247-.034-11.235-1.644-.033-1.644-.022v-1.297c0-.704-.034-1.451-.08-1.65l-.078-.351h2.573c2.257 0 2.63.033 3.039.209.646.286 1.259 1.011 1.406 1.704.09.396.113 4.276.09 13.148l-.033 12.588-.284.483a3.615 3.615 0 0 1-.714.825l-.442.34-7.722.056-7.733.055-.034.956-.034.967h-8.82l-.035-.967-.034-.956-7.733-.055-7.721-.055-.442-.341a3.615 3.615 0 0 1-.715-.825l-.283-.483-.034-12.588c-.023-8.872 0-12.753.09-13.148.148-.693.76-1.418 1.406-1.704.443-.187.942-.21 8.584-.21h8.118l-.102.627Zm-5.454 3.409c-.034.142-5.374 12.818-8.368 19.876-.045.12-.09-4.343-.09-9.927l-.012-10.136h4.264c4.013 0 4.263.01 4.206.186Zm5.76.417c.646 2.166 2.472 4.233 4.649 5.233 1.236.572 2.052.77 3.47.836 2.71.132 5.09-.803 6.961-2.727.941-.978 1.53-1.913 1.939-3.089l.295-.857h1.417c1.304 0 1.417.01 1.35.186-.046.11-2.053 4.959-4.468 10.785l-4.377 10.576H20.525c-12.042 0-12.688-.011-12.609-.198.193-.506 8.935-21.195 8.98-21.272.023-.044 1.134-.077 2.472-.077h2.427l.181.604Zm20.24 10.884V35.5h-4.207c-3.323 0-4.196-.033-4.15-.143.918-2.265 8.3-19.975 8.322-19.975.023 0 .034 4.53.034 10.059Zm-22.11 15.556v.99h9.75v-1.98h9.298c8.05 0 9.297.022 9.297.165 0 .44-.294 1.407-.635 2.11-.714 1.452-2.154 2.584-3.832 3.002-.885.22-1.213.22-19.003.22s-18.119 0-19.003-.22c-1.679-.418-3.118-1.55-3.833-3.001-.34-.704-.635-1.671-.635-2.11 0-.144 1.247-.166 9.298-.166h9.297v.99Z" fill="currentColor"/><path d="M22.77 1.08c-1.168.275-1.985 1.286-1.985 2.44 0 .21.16.693.34 1.067.193.385.34.869.34 1.067 0 .802-.986 1.308-1.61.835-.158-.132-.487-.55-.713-.945-.386-.682-.68-.88-.806-.561-.079.209.703 1.55 1.089 1.869.476.385 1.032.45 1.644.187.998-.429 1.225-1.33.624-2.485-.533-1.022-.42-1.89.317-2.495 1.077-.869 2.426-.583 3.13.681.385.682.396.649-.749 1.22-.351.176-.725.43-.816.561-.227.319-.227.858 0 1.33l.181.363-.59.847c-.328.461-.736 1.198-.907 1.638l-.328.802-8.311.055c-9.173.066-8.663.022-9.547.77a4.102 4.102 0 0 0-.726.923l-.306.56v12.918c0 14.138-.045 13.313.692 14.237l.374.484-1.554.033L1 39.514l.023.692c.056 1.836 1.213 3.738 2.948 4.815.317.21.986.506 1.474.67l.884.309h18.538c20.205 0 19.06.033 20.477-.627 1.304-.615 2.472-1.759 3.073-3.023.318-.66.624-2.012.578-2.496l-.033-.34-1.554-.033-1.553-.033.374-.484c.737-.924.692-.1.692-14.237V11.81l-.307-.56a3.664 3.664 0 0 0-.782-.957c-.805-.67-1.18-.737-4.104-.737-2.517 0-2.597-.01-2.654-.22-.26-.978-1.462-2.814-2.37-3.628-1.711-1.55-3.628-2.297-6.043-2.374L29.37 3.3l-.227-.385c-.227-.374-.771-.725-1.145-.725-.09 0-.556.197-1.032.44-.476.241-.896.439-.941.439-.046 0-.204-.23-.363-.517-.397-.725-.964-1.22-1.621-1.407-.624-.176-.749-.187-1.27-.066Zm5.556 1.726c.272.11.544.67.374.78-.08.045-1.111.594-2.302 1.199-1.927 1-2.166 1.1-2.29.934-.238-.296-.182-.868.113-1.044.51-.33 3.651-1.924 3.787-1.935.068 0 .216.033.318.066Zm3.889 1.21c2.607.505 5.045 2.44 6.066 4.826.68 1.583.827 3.65.374 5.276-.975 3.507-4.343 5.992-8.107 5.992-1.451 0-2.45-.22-3.685-.813-2.324-1.11-3.866-2.98-4.501-5.453-.465-1.825-.114-4.277.827-5.838.84-1.374.715-1.297 5.817-3.88.465-.242.714-.286 1.451-.286.488 0 1.281.077 1.758.175ZM21.67 10.731c-.057.352-.09 1.1-.068 1.65l.045 1.022H14.55c-3.9 0-7.154.044-7.233.088-.114.077-.137 2.407-.114 11.301l.034 11.203 17.518.033c9.638.01 17.631 0 17.779-.033l.25-.055-.024-11.247-.034-11.235-1.644-.033-1.644-.022v-1.297c0-.704-.034-1.451-.08-1.65l-.078-.351h2.573c2.257 0 2.63.033 3.039.209.646.286 1.259 1.011 1.406 1.704.09.396.113 4.276.09 13.148l-.033 12.588-.284.483a3.615 3.615 0 0 1-.714.825l-.442.34-7.722.056-7.733.055-.034.956-.034.967h-8.82l-.035-.967-.034-.956-7.733-.055-7.721-.055-.442-.341a3.615 3.615 0 0 1-.715-.825l-.283-.483-.034-12.588c-.023-8.872 0-12.753.09-13.148.148-.693.76-1.418 1.406-1.704.443-.187.942-.21 8.584-.21h8.118l-.102.627Zm-5.454 3.409c-.034.142-5.374 12.818-8.368 19.876-.045.12-.09-4.343-.09-9.927l-.012-10.136h4.264c4.013 0 4.263.01 4.206.186Zm5.76.417c.646 2.166 2.472 4.233 4.649 5.233 1.236.572 2.052.77 3.47.836 2.71.132 5.09-.803 6.961-2.727.941-.978 1.53-1.913 1.939-3.089l.295-.857h1.417c1.304 0 1.417.01 1.35.186-.046.11-2.053 4.959-4.468 10.785l-4.377 10.576H20.525c-12.042 0-12.688-.011-12.609-.198.193-.506 8.935-21.195 8.98-21.272.023-.044 1.134-.077 2.472-.077h2.427l.181.604Zm20.24 10.884V35.5h-4.207c-3.323 0-4.196-.033-4.15-.143.918-2.265 8.3-19.975 8.322-19.975.023 0 .034 4.53.034 10.059Zm-22.11 15.556v.99h9.75v-1.98h9.298c8.05 0 9.297.022 9.297.165 0 .44-.294 1.407-.635 2.11-.714 1.452-2.154 2.584-3.832 3.002-.885.22-1.213.22-19.003.22s-18.119 0-19.003-.22c-1.679-.418-3.118-1.55-3.833-3.001-.34-.704-.635-1.671-.635-2.11 0-.144 1.247-.166 9.298-.166h9.297v.99Z" stroke="currentColor" mask="url(#terror-a)"/><path d="m29.247 6.312.003-.007.003-.008a.387.387 0 0 1 .211-.19 1.03 1.03 0 0 1 .248-.062c.183-.026.448-.037.812-.037 1.699 0 3.04.48 4.213 1.514l.002.002c.55.494.98 1.004 1.202 1.406.106.19.19.4.174.588a.421.421 0 0 1-.152.299.492.492 0 0 1-.314.1.563.563 0 0 1-.33-.114.552.552 0 0 1-.204-.282.579.579 0 0 0-.057-.102 2.52 2.52 0 0 0-.15-.2 7.203 7.203 0 0 0-.475-.518c-.37-.37-.794-.733-1.081-.91V7.79c-.807-.5-1.736-.754-2.82-.765a9.015 9.015 0 0 1-.6-.022 1.703 1.703 0 0 1-.406-.071.46.46 0 0 1-.295-.256.497.497 0 0 1 .016-.364ZM25.183 14.284a.444.444 0 0 0-.192.425c.012.141.075.29.157.434.167.295.47.667.888 1.105l.001.001c1.785 1.845 4.593 2.415 6.998 1.432l-.094-.232m-7.758-3.165 3.077 2.322c1.336.611 2.943.662 4.214.16.264-.105.474-.176.638-.208.147-.028.334-.043.478.065l.004.003c.084.066.17.163.194.298a.438.438 0 0 1-.1.352c-.129.16-.37.29-.653.405l-.094-.232m-7.758-3.165.007-.005m-.007.005.007-.005m7.75 3.17c.568-.23.738-.44.5-.626l-5.284.01c-.601-.274-1.746-1.274-2.381-2.088-.216-.264-.33-.33-.454-.253-.25.165.068.715.896 1.583 1.712 1.77 4.41 2.32 6.724 1.375Zm-7.75-3.17a.43.43 0 0 1 .22-.067.444.444 0 0 1 .227.061c.116.065.224.182.331.314m-.778-.307.778.307m0 0 .004.004m-.004-.004.004.004m0 0c.305.392.738.834 1.17 1.212m-1.17-1.212 1.17 1.212m0 0c.438.383.852.682 1.118.803l-1.117-.803ZM29.477 26.926l.005.006.004.006c.054.069.097.154.117.242a.412.412 0 0 1-.05.324.263.263 0 0 1-.134.103.429.429 0 0 1-.064.017 1.298 1.298 0 0 1-.121.017 7.56 7.56 0 0 1-.39.024c-.334.014-.83.025-1.49.034-1.321.018-3.31.026-6.003.026-3.31 0-5.294-.005-6.456-.027-.58-.011-.962-.026-1.203-.048a1.949 1.949 0 0 1-.288-.042.503.503 0 0 1-.118-.044.297.297 0 0 1-.137-.149.536.536 0 0 1 .126-.548.292.292 0 0 1 .1-.063.461.461 0 0 1 .061-.017 1.17 1.17 0 0 1 .12-.02c.089-.01.211-.018.367-.026.313-.016.778-.028 1.412-.038 1.27-.02 3.227-.027 6.028-.027 3.338 0 5.291.005 6.425.029.566.011.935.027 1.173.05.118.012.213.026.287.045a.44.44 0 0 1 .229.126ZM21.386 29.683c-3.96.01-5.958.016-6.965-.009-.494-.012-.775-.032-.934-.07a.438.438 0 0 1-.251-.141c-.074-.093-.072-.197-.072-.224v-.008c0-.028-.002-.132.072-.225a.438.438 0 0 1 .25-.141c.16-.038.44-.058.935-.07 1.007-.025 3.005-.02 6.965-.008 3.491.016 5.484.03 6.604.058.558.013.908.03 1.121.055.103.011.193.026.262.05a.373.373 0 0 1 .127.074.283.283 0 0 1 0 .421.373.373 0 0 1-.127.073c-.07.025-.159.04-.262.052a14.56 14.56 0 0 1-1.12.055c-1.12.027-3.114.041-6.605.058Zm7.82-.636h-.001ZM28.014 31.079l-.004-.01a.355.355 0 0 0-.179-.176.824.824 0 0 0-.218-.062 6.797 6.797 0 0 0-.803-.056c-.79-.025-2.2-.03-4.72-.03-2.713 0-4.123.002-4.853.03-.357.013-.58.033-.715.071a.424.424 0 0 0-.221.134.345.345 0 0 0-.074.223c0 .11.038.217.091.301.053.082.139.17.26.21.04.015.086.02.107.022h.001a12.419 12.419 0 0 0 .512.026c.32.01.758.017 1.275.023 1.035.01 2.39.013 3.74.009s2.699-.015 3.72-.032c.512-.009.942-.018 1.252-.03.154-.005.28-.011.372-.018a2.112 2.112 0 0 0 .17-.02c.01-.002.052-.01.093-.035m.194-.58-.194.58m.194-.58.003.01m-.003-.01.003.01m-.197.57a.486.486 0 0 0 .197-.57m-.197.57.197-.57M19.154 33.749c-2.801.01-4.293.011-5.063-.039a4.554 4.554 0 0 1-.471-.05.984.984 0 0 1-.312-.098.378.378 0 0 1-.199-.277.492.492 0 0 1 .038-.248.334.334 0 0 1 .21-.191 1.09 1.09 0 0 1 .225-.048c.174-.022.445-.037.853-.046.821-.02 2.237-.02 4.64-.009h.056c2.726.017 4.125.025 4.84.057.35.015.57.037.704.081a.395.395 0 0 1 .219.16c.053.084.053.172.053.202v.006c0 .03 0 .117-.052.202a.393.393 0 0 1-.218.16c-.133.044-.351.066-.696.081-.706.032-2.085.04-4.77.057h-.057Z" fill="currentColor" stroke="currentColor" stroke-width=".5"/></symbol><symbol id="icon-vk" viewBox="0 0 24 24"><path fill-rule="evenodd" clip-rule="evenodd" d="M22.72 6.188c.167-.53 0-.914-.738-.914h-2.455c-.619 0-.905.337-1.072.697 0 0-1.263 3.075-3.026 5.069-.572.576-.834.768-1.144.768-.167 0-.381-.192-.381-.72V6.163c0-.625-.19-.913-.715-.913h-3.86c-.382 0-.62.288-.62.577 0 .6.881.744.976 2.426v3.653c0 .793-.14.938-.453.938-.833 0-2.859-3.1-4.074-6.63-.236-.7-.476-.964-1.096-.964H1.584c-.715 0-.834.336-.834.697 0 .648.834 3.915 3.884 8.239 2.026 2.953 4.909 4.54 7.506 4.54 1.573 0 1.764-.36 1.764-.96V15.53c0-.72.143-.84.643-.84.357 0 1.001.191 2.455 1.609 1.667 1.681 1.953 2.45 2.883 2.45h2.454c.715 0 1.049-.36.858-1.057-.214-.697-1.025-1.705-2.073-2.906-.572-.673-1.43-1.417-1.692-1.778-.357-.48-.262-.672 0-1.105-.024 0 2.979-4.276 3.288-5.718" fill="currentColor"/></symbol></svg>